<svg version="1.1" id="Layer_1" xmlns="http://www.w3.org/2000/svg" xmlns:xlink="http://www.w3.org/1999/xlink" x="0px" y="0px"
	 width="100%" viewBox="0 0 166 120" enable-background="new 0 0 166 120" xml:space="preserve">
<path fill="#080808" opacity="1.000000" stroke="none" 
	d="
M1.000000,7.000000 
	C1.000000,5.933331 1.000000,4.866662 1.468437,3.383599 
	C56.957916,2.978137 111.978958,2.989069 167.000000,3.000000 
	C167.000000,42.333347 167.000000,81.666695 167.000000,121.000000 
	C163.608414,121.000000 160.287155,121.000000 156.378662,120.610413 
	C154.619308,119.815292 153.447678,119.056725 152.275024,119.055161 
	C106.822357,118.994606 61.369560,118.986565 15.917042,119.086494 
	C14.609965,119.089363 13.305620,120.334236 12.000001,121.000000 
	C9.299986,121.000000 6.599972,121.000000 3.448672,120.531342 
	C2.996861,84.176163 3.025213,48.289543 2.910941,12.403380 
	C2.905199,10.600244 1.665271,8.801037 1.000000,7.000000 
M131.951233,45.489429 
	C134.474976,45.342922 136.998734,45.196415 139.626480,45.052681 
	C139.626480,45.052681 139.650177,45.054760 140.784897,45.442295 
	C141.173508,45.535732 141.562134,45.629173 141.754395,46.239040 
	C141.704437,46.823776 141.654480,47.408516 141.604538,47.993252 
	C146.832870,47.985706 152.062164,48.013084 157.286926,47.872463 
	C157.562073,47.865059 157.798889,46.433308 158.621643,44.934410 
	C158.621643,33.005028 158.621643,21.075645 158.621643,8.931220 
	C157.293640,8.830204 156.166092,8.669709 155.038513,8.669426 
	C107.928932,8.657628 60.819344,8.655963 13.709776,8.680368 
	C12.232861,8.681134 10.756094,8.969572 8.459648,9.241110 
	C7.986094,10.005717 7.107968,10.766299 7.100312,11.535543 
	C7.002054,21.408195 6.972882,31.282858 7.111237,41.154419 
	C7.124564,42.105320 8.374210,43.038895 9.323504,44.552414 
	C10.021260,44.992176 10.719016,45.431942 10.827738,46.606304 
	C12.235687,47.068394 13.642423,47.922878 15.051788,47.927235 
	C22.703308,47.950905 30.355721,47.653450 38.007378,47.670403 
	C67.635979,47.736042 97.264435,47.909149 126.892883,47.897419 
	C128.279068,47.896870 129.664688,46.504208 131.951233,45.489429 
M8.273920,55.211998 
	C7.863119,55.867191 7.096142,56.520943 7.093475,57.177792 
	C7.022058,74.768188 6.990575,92.359215 7.129033,109.948738 
	C7.136511,110.898712 8.680243,111.836586 10.136787,112.822594 
	C10.757357,112.906898 11.377927,112.991196 12.222475,113.842186 
	C13.406590,114.227043 14.590285,114.946938 15.774879,114.948418 
	C61.527649,115.005592 107.280540,115.013283 153.033173,114.916206 
	C154.357178,114.913399 155.678635,113.709480 157.729324,112.860046 
	C158.196884,111.574257 158.664429,110.288460 159.828125,108.815376 
	C161.373566,106.664764 162.211166,104.598335 158.966080,102.208488 
	C159.018051,101.139832 159.070038,100.071167 159.879440,98.771187 
	C160.252014,95.481453 160.881485,92.192245 160.888275,88.901764 
	C160.891632,87.268188 159.751175,85.632256 158.956070,83.250847 
	C158.956070,73.493111 158.956070,63.735371 158.956070,54.048199 
	C157.749084,53.877934 157.259186,53.748386 156.769257,53.748295 
	C108.848801,53.739063 60.928329,53.729549 13.007953,53.792751 
	C11.691687,53.794487 10.376460,54.584801 8.273920,55.211998 
M82.255432,51.007950 
	C58.233032,51.007950 34.210636,51.007950 10.188236,51.007950 
	C10.189932,51.219219 10.191628,51.430485 10.193324,51.641754 
	C35.990143,51.641754 61.786961,51.641754 87.583778,51.641754 
	C87.583885,51.430386 87.583992,51.219021 87.584099,51.007652 
	C86.111343,51.007652 84.638596,51.007652 82.255432,51.007950 
M120.500000,51.992352 
	C132.619659,51.992352 144.739304,51.992352 156.858963,51.992352 
	C156.856766,51.746021 156.854553,51.499687 156.852356,51.253357 
	C134.949371,51.253357 113.046387,51.253357 91.143410,51.253357 
	C91.140854,51.499771 91.138298,51.746185 91.135742,51.992599 
	C100.590500,51.992599 110.045250,51.992599 120.500000,51.992352 
M136.478561,47.100563 
	C136.285736,47.272526 136.092911,47.444492 135.900085,47.616451 
	C136.191391,47.690228 136.482681,47.764008 136.773987,47.837788 
	C136.814285,47.615688 136.854599,47.393585 136.478561,47.100563 
z"/>
<path fill="#252525" opacity="1.000000" stroke="none" 
	d="
M167.000000,2.500001 
	C111.978958,2.989069 56.957916,2.978137 1.468437,2.983603 
	C1.166667,2.333333 1.196453,1.185555 1.526108,1.091765 
	C2.451224,0.828561 3.500000,1.000000 4.500000,1.000000 
	C57.500000,1.000000 110.500008,0.993603 163.499969,1.041754 
	C164.666931,1.042814 165.833328,1.666669 167.000000,2.500001 
z"/>
<path fill="#0C0C0C" opacity="1.000000" stroke="none" 
	d="
M12.468658,121.000000 
	C13.305620,120.334236 14.609965,119.089363 15.917042,119.086494 
	C61.369560,118.986565 106.822357,118.994606 152.275024,119.055161 
	C153.447678,119.056725 154.619308,119.815292 155.895721,120.610413 
	C108.312439,121.000000 60.624878,121.000000 12.468658,121.000000 
z"/>
<path fill="#0D0D0D" opacity="1.000000" stroke="none" 
	d="
M1.000000,7.468657 
	C1.665271,8.801037 2.905199,10.600244 2.910941,12.403380 
	C3.025213,48.289543 2.996861,84.176163 2.998693,120.531342 
	C0.531836,121.623428 1.006894,119.847839 1.005585,118.517029 
	C0.995454,108.222832 1.000000,97.928619 1.000000,87.634407 
	C1.000000,61.068710 1.000000,34.503014 1.000000,7.468657 
z"/>
<path fill="#E6E6E6" opacity="1.000000" stroke="none" 
	d="
M159.131989,109.002663 
	C158.664429,110.288460 158.196884,111.574257 156.904694,112.869324 
	C132.479401,112.878494 108.878708,112.852707 85.278107,112.885384 
	C60.851532,112.919205 36.425030,113.009758 11.998496,113.075500 
	C11.377927,112.991196 10.757357,112.906898 9.754225,112.351471 
	C9.268025,92.922691 9.164388,73.965042 9.060749,55.007393 
	C10.376460,54.584801 11.691687,53.794487 13.007953,53.792751 
	C60.928329,53.729549 108.848801,53.739063 156.769257,53.748295 
	C157.259186,53.748386 157.749084,53.877934 158.956070,54.048199 
	C158.956070,63.735371 158.956070,73.493111 158.955841,84.083488 
	C159.011063,89.611588 159.066544,94.307053 159.122025,99.002510 
	C159.070038,100.071167 159.018051,101.139832 158.959717,103.024734 
	C159.012909,105.561539 159.072449,107.282097 159.131989,109.002663 
M38.390480,59.335453 
	C38.390480,59.335453 38.394241,59.264690 37.672546,58.943859 
	C32.370583,58.744743 27.068617,58.545628 21.129963,58.638824 
	C19.829832,59.940144 18.529701,61.241463 16.988607,62.707523 
	C16.988607,62.707523 16.858950,62.969040 16.139626,63.279938 
	C15.793233,64.160713 15.150805,65.039658 15.145349,65.922539 
	C15.075937,77.155190 15.052791,88.388878 15.168629,99.620743 
	C15.179853,100.709183 16.195292,101.787262 17.059587,103.350876 
	C17.974642,104.049248 18.889694,104.747627 19.948215,105.821411 
	C20.125076,106.052361 20.358931,106.165565 20.965738,106.792168 
	C21.979343,107.175636 22.992950,107.559113 24.903517,108.150215 
	C28.934473,107.723099 32.965427,107.295975 37.636974,107.038826 
	C38.865108,105.977005 40.093243,104.915184 41.916279,103.658218 
	C42.273544,103.448639 42.630814,103.239052 43.045261,103.951057 
	C42.960720,105.532669 42.876183,107.114273 42.778000,108.951157 
	C45.615871,108.951157 48.308151,108.951157 51.814342,109.151550 
	C52.548611,108.100983 53.282875,107.050423 54.276428,105.360344 
	C54.230446,104.907509 54.184460,104.454666 54.537582,103.403229 
	C54.912743,102.031120 55.287903,100.659012 55.839325,99.374588 
	C55.839325,99.374588 55.994801,99.253830 56.729168,99.509239 
	C57.487103,99.411903 58.245037,99.314568 59.646141,99.510674 
	C60.096558,99.415260 60.546978,99.319847 61.565575,99.600693 
	C62.065201,101.067070 62.564827,102.533447 62.909485,104.667038 
	C62.994324,105.111565 63.079163,105.556091 63.065414,106.851013 
	C64.663742,111.505341 68.326607,108.358429 71.722404,109.153893 
	C72.715240,109.089310 73.708076,109.024719 74.917587,108.946037 
	C74.406487,108.045296 74.109734,107.522308 73.942322,106.261353 
	C73.963341,105.512520 73.984352,104.763695 74.699257,103.883804 
	C75.390236,104.015800 76.081207,104.147789 76.895882,104.105103 
	C76.895882,104.105103 76.729904,104.240257 76.966751,104.820061 
	C77.907639,105.629639 78.848534,106.439209 79.912682,107.077835 
	C79.912682,107.077835 79.750465,107.212387 80.153610,107.936432 
	C84.435905,108.280685 88.718193,108.624939 93.728363,109.154083 
	C96.451881,106.733131 99.175400,104.312180 102.485413,102.055817 
	C102.884651,102.103142 103.283897,102.150467 103.686722,103.109909 
	C103.686722,105.034096 103.686722,106.958290 103.686722,108.841255 
	C111.419685,108.841255 118.632469,108.841255 125.896767,108.841255 
	C125.896767,106.177231 125.896767,103.864769 126.527855,101.900131 
	C127.871422,103.128952 129.246872,104.324951 130.552170,105.593178 
	C133.625488,108.579254 144.166336,111.140343 147.545074,108.861488 
	C150.581314,106.813637 154.925629,103.483994 154.900040,100.755310 
	C154.837280,94.058693 159.438461,85.143265 149.007751,81.407532 
	C148.721527,81.305023 148.400620,81.011269 148.296814,80.732010 
	C147.229156,77.859886 144.850571,77.804138 142.345474,77.782341 
	C141.071045,77.771255 139.799850,77.386963 138.509399,77.168365 
	C138.509399,73.589455 138.509399,70.330322 138.509399,66.780289 
	C140.271530,66.780289 141.807037,66.780289 143.491287,66.780289 
	C143.636444,68.733818 143.757721,70.366074 143.920517,72.013718 
	C143.920517,72.013718 143.890610,72.042580 143.927887,72.862526 
	C147.660370,72.564819 151.392853,72.267120 155.364914,71.172913 
	C155.286133,69.799019 155.207352,68.425117 155.298996,66.278473 
	C152.970917,63.830856 151.071213,60.182327 148.231384,59.169285 
	C140.827911,56.528290 133.226425,56.096134 126.789017,63.070190 
	C126.370605,63.041931 125.952202,63.013676 125.412315,62.436481 
	C125.338104,62.264397 125.263901,62.092316 125.188416,61.124100 
	C125.066917,60.074924 124.945419,59.025753 124.860847,57.285645 
	C124.340614,57.370266 123.820374,57.454887 122.749115,56.941669 
	C117.495789,56.974880 112.242462,57.008091 106.355110,56.896339 
	C105.521500,57.239803 104.687889,57.583267 103.823395,57.957531 
	C103.823395,57.957531 103.846588,58.020390 103.684624,58.974583 
	C103.683990,60.584290 103.683357,62.193996 103.128365,63.755856 
	C102.765266,63.826145 102.402161,63.896431 101.725830,63.597691 
	C101.324234,63.342133 100.922638,63.086575 100.165184,62.216103 
	C98.462395,61.093914 96.759605,59.971722 94.589813,58.116798 
	C89.619347,58.368484 84.648872,58.620171 79.194084,59.022022 
	C78.821037,59.364189 78.447998,59.706356 77.335732,60.131847 
	C76.840088,60.123856 76.344437,60.115864 75.065834,60.042770 
	C73.873970,60.981316 72.682098,61.919861 71.552589,62.926006 
	C71.552589,62.926006 71.460869,62.911182 70.764305,62.751743 
	C69.218033,62.482422 67.671753,62.213100 65.990829,61.317699 
	C66.036575,60.895706 66.082321,60.473709 66.958809,59.839661 
	C67.748405,54.551365 63.800674,57.734356 61.264835,56.876095 
	C60.508446,56.938343 59.752056,57.000591 58.096001,56.897919 
	C55.473354,56.897919 52.850708,56.897919 50.161041,56.897919 
	C49.500362,59.424210 48.907070,61.692841 48.322617,64.716263 
	C48.124756,65.430351 47.926899,66.144447 46.922039,66.836960 
	C45.308479,66.879967 43.694920,66.922966 41.963840,66.501358 
	C41.963840,66.501358 42.078510,66.036026 42.809254,66.000717 
	C44.568111,62.690224 41.786808,62.257610 39.747379,61.224579 
	C39.747379,61.224579 39.610462,61.212563 39.408955,59.992271 
	C39.070515,59.756844 38.732075,59.521420 38.390480,59.335453 
z"/>
<path fill="#EDEDED" opacity="1.000000" stroke="none" 
	d="
M11.416773,45.871704 
	C10.719016,45.431942 10.021260,44.992176 9.304173,43.811676 
	C9.282981,31.755257 9.281119,20.439577 9.279259,9.123899 
	C10.756094,8.969572 12.232861,8.681134 13.709776,8.680368 
	C60.819344,8.655963 107.928932,8.657628 155.038513,8.669426 
	C156.166092,8.669709 157.293640,8.830204 158.621643,8.931220 
	C158.621643,21.075645 158.621643,33.005028 157.891769,45.190594 
	C154.433884,45.541790 151.705887,45.636803 148.659271,45.613815 
	C147.903107,45.578167 147.465561,45.660519 146.726013,45.595860 
	C144.932938,45.540100 143.441833,45.631351 141.950745,45.722610 
	C141.562134,45.629173 141.173508,45.535732 140.031372,44.780296 
	C140.877457,43.509621 142.621338,42.149593 144.051361,42.424187 
	C149.806473,43.529285 153.198929,42.507217 155.331284,38.324116 
	C157.756226,33.567036 156.525299,28.557175 152.048889,24.662565 
	C152.117447,24.095276 152.109833,23.772299 152.480530,23.391068 
	C157.676605,21.113419 154.083313,16.961105 155.110336,13.879217 
	C153.302216,13.606824 151.494080,13.334431 149.383499,12.699376 
	C144.888977,9.579642 141.776550,11.391125 138.792755,14.850497 
	C138.393784,15.036456 138.223343,15.085927 137.938995,14.901926 
	C137.563797,14.446376 137.302521,14.224297 136.784515,13.643695 
	C130.094193,13.083909 123.656151,12.714990 117.232323,12.884527 
	C116.388870,12.906787 114.622360,16.697197 114.965057,17.034678 
	C119.237968,21.242544 115.985466,26.072924 116.982094,30.068628 
	C115.049042,29.436272 112.836174,28.061445 112.111038,28.619568 
	C110.855415,29.585974 110.585625,31.781963 109.780815,33.401844 
	C109.154945,34.661591 108.344238,35.829514 107.615677,37.038246 
	C106.441917,36.184261 105.125023,35.462490 104.158981,34.416637 
	C103.721619,33.943134 103.981125,32.825947 104.009827,31.542906 
	C104.095169,27.097631 104.095169,23.110226 104.095169,19.215296 
	C109.355507,17.232527 109.656769,16.104086 105.550095,12.770476 
	C101.083458,12.697821 97.059120,12.773997 92.692734,12.758066 
	C91.887596,12.731886 91.424515,12.797812 90.504257,12.780274 
	C85.378105,12.731647 80.709122,12.766484 75.767769,12.705790 
	C75.314911,12.676980 75.134430,12.743701 74.498581,12.712304 
	C69.033440,12.697031 64.023643,12.779877 58.610962,12.744360 
	C57.095318,13.632363 55.982563,14.638729 54.805340,15.703395 
	C46.682858,8.917958 40.231125,10.576493 35.604996,20.905727 
	C35.048283,20.740679 34.734146,20.757811 34.405746,20.496288 
	C34.486034,16.098360 33.013344,13.082147 28.721745,12.745934 
	C24.427454,12.409510 20.082718,12.500397 15.775043,12.710505 
	C14.754868,12.760265 13.277019,13.858015 12.954680,14.797812 
	C12.643387,15.705408 13.474249,17.064480 13.944293,18.165045 
	C14.517151,19.506338 15.712726,20.752825 15.803037,22.096500 
	C16.058973,25.904419 15.927250,29.741657 15.859088,33.565762 
	C15.842317,34.506672 15.710688,36.120003 15.250060,36.272736 
	C11.258317,37.596298 12.775917,40.140430 13.376117,42.470615 
	C15.430017,42.722229 17.209072,42.940170 18.765350,43.374397 
	C17.694807,44.110664 16.847040,44.630650 15.697041,45.276428 
	C14.643501,45.650955 13.892196,45.899685 12.956963,46.074402 
	C12.320949,45.957497 11.868861,45.914600 11.416773,45.871704 
z"/>
<path fill="#0A0A0A" opacity="1.000000" stroke="none" 
	d="
M138.052917,15.135397 
	C138.223343,15.085927 138.393784,15.036456 139.175934,14.857920 
	C142.190750,14.212747 144.593826,13.696638 146.951477,13.452998 
	C146.601593,15.031588 146.297150,16.337708 145.693039,17.865231 
	C142.787888,20.387859 143.624100,22.068134 146.436066,23.180014 
	C148.246506,23.895874 150.164520,24.339682 152.034317,24.905422 
	C156.525299,28.557175 157.756226,33.567036 155.331284,38.324116 
	C153.198929,42.507217 149.806473,43.529285 144.051361,42.424187 
	C142.621338,42.149593 140.877457,43.509621 139.464005,44.586525 
	C139.650177,45.054760 139.626480,45.052681 139.917511,44.727287 
	C139.138947,43.578514 138.069351,42.755131 136.996323,41.694504 
	C136.992874,41.457260 136.984116,40.982807 136.794861,40.747681 
	C135.744125,40.672913 134.882629,40.833275 133.760544,40.994835 
	C133.326233,40.995808 133.152496,40.995586 132.748566,40.731316 
	C130.677933,39.979740 128.837509,39.492218 127.235565,38.746887 
	C129.711121,37.259857 133.876114,37.625401 131.960632,32.535381 
	C131.225677,32.389347 130.541855,32.711380 129.545959,33.184326 
	C126.254341,34.714436 122.981758,35.819668 122.534119,40.003761 
	C116.045784,40.003853 110.023628,40.002304 103.748970,40.001114 
	C103.328148,40.002842 103.159828,40.004200 102.607552,40.007484 
	C100.821892,40.337326 99.420189,40.665249 97.764244,40.995487 
	C97.340515,40.998077 97.171021,40.998352 97.001175,40.574287 
	C96.997231,39.014824 96.993652,37.879696 97.065399,36.440933 
	C97.331291,35.119568 97.521835,34.101833 98.063858,33.087662 
	C100.251717,32.727745 102.088104,32.364262 103.924492,32.000778 
	C103.981125,32.825947 103.721619,33.943134 104.158981,34.416637 
	C105.125023,35.462490 106.441917,36.184261 107.615677,37.038246 
	C108.344238,35.829514 109.154945,34.661591 109.780815,33.401844 
	C110.585625,31.781963 110.855415,29.585974 112.111038,28.619568 
	C112.836174,28.061445 115.049042,29.436272 116.982094,30.068628 
	C115.985466,26.072924 119.237968,21.242544 114.965057,17.034678 
	C114.622360,16.697197 116.388870,12.906787 117.232323,12.884527 
	C123.656151,12.714990 130.094193,13.083909 136.661469,13.935633 
	C136.843338,15.358267 136.891556,16.130438 136.939789,16.902611 
	C137.227982,16.893898 137.516174,16.885185 137.804367,16.876472 
	C137.887207,16.296114 137.970062,15.715755 138.052917,15.135397 
M130.061432,25.905193 
	C130.167755,27.481312 130.274094,29.057428 130.487122,32.215477 
	C133.254074,27.923006 134.998474,29.871889 137.690186,30.573256 
	C141.251358,31.501171 143.032715,32.138321 143.750427,35.748302 
	C143.893631,36.468678 146.358749,37.402214 147.396759,37.081989 
	C148.455582,36.755356 149.990005,34.372452 149.725433,33.989868 
	C148.694733,32.499390 147.149094,31.261372 145.580002,30.269587 
	C142.780502,28.500084 139.825027,26.977365 136.343674,25.018930 
	C135.636459,25.018930 133.796478,25.018930 131.899429,24.132072 
	C131.899429,22.221094 131.899429,20.310116 131.899429,18.381752 
	C129.138016,18.381752 126.948395,18.381752 124.195663,18.381752 
	C124.416786,20.866262 124.598122,22.903702 124.779457,24.941139 
	C125.166901,24.955498 125.554352,24.969854 125.941803,24.984211 
	C126.623207,23.378363 127.304611,21.772512 127.986015,20.166664 
	C128.399719,20.184574 128.813431,20.202486 129.227158,20.220396 
	C129.545288,21.825571 129.863434,23.430746 130.061432,25.905193 
z"/>
<path fill="#EDEDED" opacity="1.000000" stroke="none" 
	d="
M136.999771,41.931747 
	C138.069351,42.755131 139.138947,43.578514 139.865509,44.725906 
	C136.998734,45.196415 134.474976,45.342922 131.095734,45.475494 
	C128.819778,45.552914 127.399330,45.644268 125.579132,45.609600 
	C123.794983,45.561970 122.410591,45.640358 120.596062,45.583656 
	C118.376839,45.546757 116.587746,45.644947 114.383919,45.617500 
	C111.655014,45.571163 109.340843,45.650463 106.589371,45.584160 
	C103.093521,45.540607 100.034981,45.642654 96.739830,45.640224 
	C96.344261,45.602570 96.185295,45.669395 95.623871,45.587868 
	C93.807335,45.527996 92.393272,45.616470 90.619370,45.586258 
	C89.515266,45.557201 88.770981,45.646839 87.593727,45.588882 
	C84.433365,45.541584 81.705986,45.641876 78.619049,45.620804 
	C77.515251,45.578869 76.771004,45.658298 75.612930,45.590782 
	C73.459053,45.539543 71.718994,45.635250 69.596527,45.603558 
	C68.151695,45.563343 67.089287,45.650528 65.584244,45.585262 
	C60.763790,45.326027 56.385967,45.219238 51.666924,44.476616 
	C50.995491,43.490932 50.665283,43.141090 50.582649,42.537224 
	C55.222813,40.004459 56.932613,35.974369 57.118187,31.440521 
	C57.243591,28.376686 58.101181,26.248009 61.217014,24.959204 
	C62.053799,24.981375 62.532055,24.990604 63.109100,25.452454 
	C63.219818,26.903088 63.372875,27.923653 63.217674,28.894962 
	C62.718712,32.017624 65.239929,36.307762 59.852505,37.684711 
	C59.477551,37.780544 59.181358,39.931664 59.576237,40.793659 
	C59.959656,41.630642 61.246586,42.479256 62.196075,42.552380 
	C65.157867,42.780487 68.166985,42.837280 71.116280,42.543728 
	C72.148125,42.441025 73.761375,41.201298 73.850655,40.348969 
	C73.965858,39.249226 72.877464,37.981216 72.196495,36.852589 
	C71.565819,35.807289 70.284622,34.902607 70.174446,33.843948 
	C69.883240,31.045942 70.022209,28.196949 70.084183,25.370317 
	C70.136505,22.984238 70.320938,20.601053 70.446899,18.216587 
	C70.992386,18.233950 71.537880,18.251310 72.083366,18.268673 
	C72.140572,19.451071 71.866066,20.788551 72.329971,21.780811 
	C73.093689,23.414333 74.101585,25.821430 75.421898,26.131014 
	C78.644150,26.886551 79.053619,24.320215 78.974556,21.721483 
	C78.938568,20.538891 79.238457,19.346081 79.385994,18.157906 
	C79.989174,18.204779 80.592346,18.251652 81.195518,18.298525 
	C81.195518,23.853870 81.269455,29.411526 81.095932,34.961441 
	C81.075699,35.608425 79.612923,36.143620 78.953331,36.855228 
	C78.230873,37.634663 77.185562,38.544884 77.160278,39.423428 
	C77.133263,40.362148 78.170166,42.175785 78.678474,42.153351 
	C83.135483,41.956596 87.578133,41.434589 92.334320,41.003021 
	C93.261887,41.009995 93.880173,41.022938 94.698631,41.345978 
	C95.553947,41.895973 96.209091,42.135872 97.116440,42.507278 
	C98.285393,42.513863 99.202148,42.388939 100.562401,42.356400 
	C104.619987,42.420918 108.234070,42.393059 112.060684,42.495804 
	C112.898567,42.525742 113.523933,42.425072 114.492554,42.378220 
	C115.523781,42.366508 116.211754,42.300980 117.123383,42.415657 
	C118.271431,42.483627 119.195824,42.371391 120.565231,42.351974 
	C124.659492,42.404762 128.308746,42.364731 132.259537,42.455132 
	C134.040649,42.367622 135.520203,42.149685 136.999771,41.931747 
z"/>
<path fill="#0C0C0C" opacity="1.000000" stroke="none" 
	d="
M12.110485,113.458839 
	C36.425030,113.009758 60.851532,112.919205 85.278107,112.885384 
	C108.878708,112.852707 132.479401,112.878494 156.540649,112.972099 
	C155.678635,113.709480 154.357178,114.913399 153.033173,114.916206 
	C107.280540,115.013283 61.527649,115.005592 15.774879,114.948418 
	C14.590285,114.946938 13.406590,114.227043 12.110485,113.458839 
z"/>
<path fill="#141414" opacity="1.000000" stroke="none" 
	d="
M90.979202,45.704948 
	C92.393272,45.616470 93.807335,45.527996 95.667473,45.749634 
	C96.401176,45.954731 96.688812,45.849720 96.976440,45.744705 
	C100.034981,45.642654 103.093521,45.540607 106.747948,45.873207 
	C109.828773,46.119614 112.313721,45.931377 114.798660,45.743137 
	C116.587746,45.644947 118.376839,45.546757 120.730240,45.855301 
	C122.856003,46.086563 124.417442,45.911095 125.978882,45.735619 
	C127.399330,45.644268 128.819778,45.552914 130.645416,45.610722 
	C129.664688,46.504208 128.279068,47.896870 126.892883,47.897419 
	C97.264435,47.909149 67.635979,47.736042 38.007378,47.670403 
	C30.355721,47.653450 22.703308,47.950905 15.051788,47.927235 
	C13.642423,47.922878 12.235687,47.068394 11.122255,46.239006 
	C11.868861,45.914600 12.320949,45.957497 13.423692,46.358231 
	C17.376757,46.389606 20.679167,46.063133 24.428173,45.589600 
	C29.924129,45.547005 34.973488,45.651470 40.107571,45.956684 
	C40.788307,46.013950 41.384327,45.870472 42.383080,45.578911 
	C44.197666,45.536121 45.609516,45.641411 47.124882,45.984722 
	C48.146008,46.063740 49.063618,45.904736 50.305584,45.596199 
	C51.089344,45.335262 51.548744,45.223854 52.008148,45.112450 
	C56.385967,45.219238 60.763790,45.326027 65.706017,45.838844 
	C67.506599,46.073566 68.742767,45.902260 69.978943,45.730957 
	C71.718994,45.635250 73.459053,45.539543 75.713654,45.829796 
	C77.145004,46.057888 78.061806,45.900028 78.978600,45.742172 
	C81.705986,45.641876 84.433365,45.541584 87.695068,45.829567 
	C89.145988,46.046883 90.062599,45.875916 90.979202,45.704948 
z"/>
<path fill="#1A1A1A" opacity="1.000000" stroke="none" 
	d="
M8.667335,55.109695 
	C9.164388,73.965042 9.268025,92.922691 9.440254,112.330215 
	C8.680243,111.836586 7.136511,110.898712 7.129033,109.948738 
	C6.990575,92.359215 7.022058,74.768188 7.093475,57.177792 
	C7.096142,56.520943 7.863119,55.867191 8.667335,55.109695 
z"/>
<path fill="#151515" opacity="1.000000" stroke="none" 
	d="
M82.710632,51.007801 
	C84.638596,51.007652 86.111343,51.007652 87.584099,51.007652 
	C87.583992,51.219021 87.583885,51.430386 87.583778,51.641754 
	C61.786961,51.641754 35.990143,51.641754 10.193324,51.641754 
	C10.191628,51.430485 10.189932,51.219219 10.188236,51.007950 
	C34.210636,51.007950 58.233032,51.007950 82.710632,51.007801 
z"/>
<path fill="#1A1A1A" opacity="1.000000" stroke="none" 
	d="
M8.869453,9.182505 
	C9.281119,20.439577 9.282981,31.755257 9.167390,43.525723 
	C8.374210,43.038895 7.124564,42.105320 7.111237,41.154419 
	C6.972882,31.282858 7.002054,21.408195 7.100312,11.535543 
	C7.107968,10.766299 7.986094,10.005717 8.869453,9.182505 
z"/>
<path fill="#151515" opacity="1.000000" stroke="none" 
	d="
M120.000000,51.992477 
	C110.045250,51.992599 100.590500,51.992599 91.135742,51.992599 
	C91.138298,51.746185 91.140854,51.499771 91.143410,51.253357 
	C113.046387,51.253357 134.949371,51.253357 156.852356,51.253357 
	C156.854553,51.499687 156.856766,51.746021 156.858963,51.992352 
	C144.739304,51.992352 132.619659,51.992352 120.000000,51.992477 
z"/>
<path fill="#141414" opacity="1.000000" stroke="none" 
	d="
M148.977875,45.731812 
	C151.705887,45.636803 154.433884,45.541790 157.607727,45.555710 
	C157.798889,46.433308 157.562073,47.865059 157.286926,47.872463 
	C152.062164,48.013084 146.832870,47.985706 141.604538,47.993252 
	C141.654480,47.408516 141.704437,46.823776 141.852570,45.980824 
	C143.441833,45.631351 144.932938,45.540100 146.807266,45.798725 
	C147.786301,46.009670 148.382080,45.870739 148.977875,45.731812 
z"/>
<path fill="#0C0C0C" opacity="1.000000" stroke="none" 
	d="
M159.500732,98.886848 
	C159.066544,94.307053 159.011063,89.611588 159.041885,84.456757 
	C159.751175,85.632256 160.891632,87.268188 160.888275,88.901764 
	C160.881485,92.192245 160.252014,95.481453 159.500732,98.886848 
z"/>
<path fill="#0C0C0C" opacity="1.000000" stroke="none" 
	d="
M159.480057,108.909019 
	C159.072449,107.282097 159.012909,105.561539 159.044754,103.419121 
	C162.211166,104.598335 161.373566,106.664764 159.480057,108.909019 
z"/>
<path fill="#141414" opacity="1.000000" stroke="none" 
	d="
M136.686737,47.136024 
	C136.854599,47.393585 136.814285,47.615688 136.773987,47.837788 
	C136.482681,47.764008 136.191391,47.690228 135.900085,47.616455 
	C136.092911,47.444492 136.285736,47.272526 136.686737,47.136024 
z"/>
<path fill="#000000" opacity="1.000000" stroke="none" 
	d="
M42.988079,103.029465 
	C42.630814,103.239052 42.273544,103.448639 41.479549,103.427307 
	C37.148663,101.616005 38.029766,105.297157 36.996384,106.868858 
	C32.965427,107.295975 28.934473,107.723099 24.372860,107.688828 
	C22.778063,106.871979 21.713923,106.516510 20.649782,106.161041 
	C20.358931,106.165565 20.125076,106.052361 19.925856,105.210434 
	C19.264488,99.648499 18.295115,94.712723 18.066435,89.742882 
	C17.749290,82.850471 17.988529,75.932449 17.993071,68.507210 
	C17.617373,66.315697 17.238161,64.642365 16.858950,62.969040 
	C16.858950,62.969040 16.988607,62.707523 17.571144,62.755424 
	C22.069309,63.515675 22.213512,61.170670 21.766651,58.346512 
	C27.068617,58.545628 32.370583,58.744743 37.896049,59.343742 
	C38.134094,59.839527 38.148636,59.935429 38.163177,60.031326 
	C38.239998,59.782883 38.316814,59.534439 38.393631,59.285995 
	C38.732075,59.521420 39.070515,59.756844 39.241356,60.477997 
	C39.326099,61.076439 39.578445,61.189156 39.830791,61.301872 
	C41.786808,62.257610 44.568111,62.690224 42.116341,65.873383 
	C39.986721,65.478271 38.550022,65.210480 37.113323,64.942688 
	C37.078915,65.617119 37.044506,66.291542 37.010098,66.965973 
	C38.700520,66.965973 40.390938,66.965973 42.081360,66.965973 
	C43.694920,66.922966 45.308479,66.879967 47.608067,66.961517 
	C48.494305,67.119904 48.694515,67.153717 48.927067,67.505493 
	C48.975677,68.252357 48.991943,68.681244 48.652336,68.989243 
	C49.212200,70.593788 50.127937,72.319229 51.035671,74.023499 
	C51.027672,74.002319 51.058060,74.043900 51.105148,74.302277 
	C51.031616,75.366798 50.910992,76.172951 50.618210,76.985260 
	C50.446045,76.991417 50.101505,76.994064 49.981758,76.824295 
	C49.546658,76.769066 49.231300,76.883598 48.699116,76.995743 
	C48.482292,76.993362 48.048733,76.983246 47.785332,76.980759 
	C47.346321,76.978966 47.170715,76.979652 46.994370,76.781357 
	C46.993633,76.582382 46.988525,76.184456 47.019432,75.888748 
	C46.373020,75.332031 45.695705,75.071030 44.820862,74.611832 
	C44.089653,74.274696 43.555969,74.135750 42.867767,73.852791 
	C41.816761,73.134102 40.920269,72.559441 40.162918,71.765877 
	C40.582649,71.192833 40.863243,70.838692 41.143833,70.484543 
	C40.751942,70.395782 40.360054,70.307022 39.968163,70.218262 
	C39.973858,70.815369 39.979549,71.412468 39.938072,72.324005 
	C39.259457,73.699120 38.628010,74.759789 37.622604,75.990891 
	C35.784576,76.394775 34.320499,76.628227 32.361977,76.940514 
	C32.361977,73.070839 32.361977,69.987595 32.361977,66.810196 
	C30.428856,66.810196 28.901991,66.810196 27.111160,66.810196 
	C27.111160,76.931137 27.271767,86.679810 27.022631,96.417992 
	C26.937307,99.753014 28.925024,99.623108 31.053284,100.256973 
	C31.984995,100.782448 32.864983,100.977882 33.744968,101.173317 
	C33.390247,100.412910 33.035526,99.652504 32.617386,98.437347 
	C32.553967,94.394539 32.553967,90.806488 32.553967,87.098213 
	C34.403389,87.098213 35.695854,87.098213 36.818321,87.323257 
	C37.999004,88.181633 39.349686,88.814957 40.700363,89.448288 
	C40.833958,89.142014 40.967552,88.835739 41.101143,88.529472 
	C40.738007,88.053192 40.374866,87.576920 40.387344,87.015739 
	C41.857826,87.280571 42.952694,87.630302 43.768002,88.245163 
	C43.989677,90.679764 44.490913,92.849236 45.236954,95.273277 
	C49.621838,93.871056 53.762806,92.216476 57.895641,90.541809 
	C57.979095,90.507996 57.967663,90.240013 58.351624,89.987442 
	C59.427895,89.913559 60.153046,89.933510 61.192371,90.010956 
	C62.243103,90.385452 62.979660,90.702431 64.000916,91.141937 
	C64.000916,89.296120 64.000916,87.646988 64.158096,85.692978 
	C64.878922,83.936440 65.442574,82.484802 66.575150,80.996490 
	C68.171272,80.497452 69.198463,80.035072 70.456047,79.937378 
	C71.044220,83.152336 71.402000,86.002625 71.343002,88.887192 
	C70.040581,89.610542 69.154915,90.299622 68.269249,90.988693 
	C69.600105,91.656227 70.930954,92.323769 72.508621,93.216019 
	C72.503273,93.736298 72.251114,94.031876 72.021729,94.677277 
	C72.230476,95.438858 72.392769,95.865631 72.632004,96.243698 
	C72.662399,96.291748 73.095268,96.085121 73.341675,95.996483 
	C72.911438,95.434326 72.481201,94.872177 72.146255,93.833725 
	C75.827721,93.224297 79.413887,93.091156 83.051376,93.285004 
	C83.765625,94.074623 84.428535,94.537247 85.212654,95.365265 
	C85.244644,96.487213 85.155426,97.243774 84.712219,98.060944 
	C82.292961,99.624641 79.228951,100.386475 79.589035,103.996948 
	C78.362320,104.079811 77.546112,104.160034 76.729904,104.240257 
	C76.729904,104.240257 76.895882,104.105103 76.912598,103.816238 
	C76.953316,103.017227 76.977318,102.507088 77.065094,101.656006 
	C77.727036,99.852783 78.325203,98.390495 78.923370,96.928207 
	C78.330566,96.649673 77.737755,96.371147 77.144951,96.092613 
	C76.115089,98.049713 75.085228,100.006805 74.030045,102.305130 
	C74.004936,103.102524 74.005142,103.558693 74.005356,104.014862 
	C73.984352,104.763695 73.963341,105.512520 73.545105,106.638962 
	C72.431892,107.661316 71.715897,108.306061 70.999893,108.950806 
	C68.326607,108.358429 64.663742,111.505341 63.391510,106.374077 
	C63.992989,105.569115 64.268364,105.241096 64.543747,104.913078 
	C64.050652,104.608658 63.557549,104.304237 63.064449,103.999825 
	C62.564827,102.533447 62.065201,101.067070 61.245544,99.098557 
	C60.513546,98.253090 60.101574,97.909767 59.689598,97.566452 
	C59.460720,98.116714 59.231846,98.666969 59.002968,99.217232 
	C58.245037,99.314568 57.487103,99.411903 56.334709,99.036591 
	C55.311874,97.805794 54.683495,97.047646 54.055115,96.289505 
	C53.763321,96.624481 53.471531,96.959465 53.179741,97.294441 
	C54.007515,97.958595 54.835289,98.622749 55.663063,99.286903 
	C55.287903,100.659012 54.912743,102.031120 53.941204,103.701309 
	C51.478966,103.453911 49.641346,102.654160 47.738377,102.442810 
	C46.195690,102.271477 44.574467,102.807297 42.988079,103.029465 
M23.999542,87.444199 
	C23.999542,90.505135 23.999542,93.566071 23.999542,96.627007 
	C24.238466,96.609528 24.477388,96.592056 24.716312,96.574585 
	C24.716312,87.126129 24.716312,77.677681 24.716312,68.229233 
	C24.477388,68.227867 24.238466,68.226501 23.999542,68.225136 
	C23.999542,74.303917 23.999542,80.382698 23.999542,87.444199 
M35.802158,68.410126 
	C35.797653,68.795219 35.793152,69.180321 35.788647,69.565414 
	C35.948463,69.567200 36.247204,69.579773 36.248024,69.569214 
	C36.277786,69.185837 36.279819,68.800308 35.802158,68.410126 
z"/>
<path fill="#090909" opacity="1.000000" stroke="none" 
	d="
M143.878998,71.998329 
	C143.757721,70.366074 143.636444,68.733818 143.491287,66.780289 
	C141.807037,66.780289 140.271530,66.780289 138.509399,66.780289 
	C138.509399,70.330322 138.509399,73.589455 138.509399,77.168365 
	C139.799850,77.386963 141.071045,77.771255 142.345474,77.782341 
	C144.850571,77.804138 147.229156,77.859886 148.296814,80.732010 
	C148.400620,81.011269 148.721527,81.305023 149.007751,81.407532 
	C159.438461,85.143265 154.837280,94.058693 154.900040,100.755310 
	C154.925629,103.483994 150.581314,106.813637 147.545074,108.861488 
	C144.166336,111.140343 133.625488,108.579254 130.552170,105.593178 
	C129.246872,104.324951 127.871422,103.128952 126.223892,101.468498 
	C125.946602,100.693848 125.973282,100.350830 126.153900,99.626274 
	C126.484856,97.149185 126.661873,95.053635 126.846863,92.863693 
	C130.726151,92.863693 134.307846,92.863693 138.048798,92.863693 
	C138.241669,95.145271 138.417114,97.220596 138.626999,99.703384 
	C140.498352,99.542305 142.026489,99.410767 143.335297,99.298111 
	C143.335297,95.284096 143.335297,91.874237 143.335297,88.479538 
	C132.289490,88.338905 124.289871,82.360664 126.514587,69.954590 
	C126.681450,69.024086 126.335426,68.001610 126.399170,66.653564 
	C126.850021,65.250320 127.129532,64.215416 127.409035,63.180504 
	C133.226425,56.096134 140.827911,56.528290 148.231384,59.169285 
	C151.071213,60.182327 152.970917,63.830856 154.947235,66.531197 
	C153.679596,67.995842 152.763702,69.207771 151.713272,70.597725 
	C149.360779,71.018303 146.619888,71.508316 143.878998,71.998329 
z"/>
<path fill="#010101" opacity="1.000000" stroke="none" 
	d="
M79.999542,103.994308 
	C79.228951,100.386475 82.292961,99.624641 84.883530,98.366898 
	C86.940903,99.019608 88.472977,99.426987 90.032516,100.103294 
	C90.246437,100.556625 90.432892,100.741013 90.619347,100.925400 
	C90.666237,100.385452 90.713135,99.845497 90.778519,98.890976 
	C90.797005,95.205215 90.797005,91.934021 90.797005,88.536453 
	C88.886848,88.256218 87.445564,88.044777 86.057938,87.537018 
	C86.421684,86.575783 86.731781,85.910866 86.984802,85.368340 
	C83.673615,84.601738 80.581467,83.885857 77.176155,83.033424 
	C74.740463,81.128288 71.155045,80.108566 74.168991,75.710526 
	C73.736137,75.518776 73.303276,75.327026 72.870422,75.135277 
	C71.247185,76.140533 69.623947,77.145782 68.000824,78.360947 
	C68.000938,78.570847 68.002075,78.990646 67.790726,79.241272 
	C66.736343,79.673035 65.893303,79.854172 65.038025,80.026711 
	C65.025780,80.018112 65.000961,80.001366 64.983154,79.652405 
	C64.319313,77.886536 63.673279,76.469635 63.017342,75.030670 
	C63.007439,75.008606 62.988831,74.963966 63.210701,74.742271 
	C64.395462,74.197365 65.358353,73.874153 67.044518,73.308159 
	C65.676567,72.699760 64.930931,72.368134 64.155899,71.642181 
	C64.016731,70.469337 63.906940,69.690826 64.181625,68.666542 
	C65.062263,66.889671 65.558411,65.358574 65.976852,63.613358 
	C65.974594,62.914085 66.050034,62.428928 66.125481,61.943775 
	C67.671753,62.213100 69.218033,62.482422 71.279465,62.962826 
	C71.962585,63.114986 72.130539,63.056061 72.298500,62.997139 
	C72.029076,62.950893 71.759659,62.904652 71.490234,62.858406 
	C72.682098,61.919861 73.873970,60.981316 75.542480,60.457977 
	C77.152702,65.408615 78.286263,69.944046 79.527351,74.909660 
	C80.211426,74.135178 80.709877,73.570847 81.518127,72.999680 
	C82.403061,71.488533 82.978195,69.984238 83.553337,68.479935 
	C83.148697,68.318642 82.744057,68.157341 82.339417,67.996048 
	C81.739479,68.651482 81.139542,69.306908 80.348091,69.600388 
	C79.662941,66.864502 79.169312,64.490570 78.988426,61.979179 
	C79.426910,60.851765 79.552658,59.861813 79.678406,58.871857 
	C84.648872,58.620171 89.619347,58.368484 94.848297,58.862503 
	C96.911537,60.682476 98.716293,61.756744 100.521042,62.831017 
	C100.922638,63.086575 101.324234,63.342133 101.868637,64.239822 
	C102.071602,67.635559 102.131752,70.389175 101.838036,73.325546 
	C98.632309,73.402977 95.780457,73.297653 92.907021,72.860321 
	C92.264046,72.018745 91.642654,71.509186 90.921814,70.617279 
	C91.252754,65.733177 88.746666,66.034813 85.111496,67.027473 
	C85.453278,70.689957 85.781013,74.201981 86.145302,78.103973 
	C87.870247,80.789284 89.356422,80.867249 91.103317,78.022171 
	C92.316757,78.035965 93.009323,78.120216 93.543121,78.566917 
	C94.849617,81.344376 96.314880,83.759392 98.015053,86.561569 
	C98.988037,85.975037 100.056091,85.331200 101.381744,84.789688 
	C101.852020,85.188766 102.064697,85.485504 102.174881,86.252563 
	C102.014565,91.778999 101.956741,96.835114 101.898911,101.891235 
	C99.175400,104.312180 96.451881,106.733131 93.259171,108.675201 
	C88.443481,107.868340 84.096970,107.540367 79.750465,107.212387 
	C79.750465,107.212387 79.912682,107.077835 79.918022,106.759857 
	C79.948761,105.626015 79.974152,104.810165 79.999542,103.994308 
M74.966690,74.628365 
	C75.284546,75.283379 75.602402,75.938400 75.920258,76.593414 
	C76.147865,76.448402 76.375473,76.303391 76.603088,76.158379 
	C76.071266,75.437157 75.539452,74.715927 75.021088,73.298965 
	C75.266594,72.081322 75.512093,70.863686 75.757599,69.646042 
	C75.196762,69.725052 74.635925,69.804070 74.075081,69.883080 
	C74.380638,71.258041 74.686195,72.633011 74.966690,74.628365 
M74.395950,61.488941 
	C74.395950,61.488941 74.510345,61.421017 74.395950,61.488941 
M89.570847,86.514282 
	C89.570847,86.514282 89.479683,86.564629 89.570847,86.514282 
z"/>
<path fill="#010101" opacity="1.000000" stroke="none" 
	d="
M125.999962,100.007812 
	C125.973282,100.350830 125.946602,100.693848 125.908340,101.294586 
	C125.896767,103.864769 125.896767,106.177231 125.896767,108.841255 
	C118.632469,108.841255 111.419685,108.841255 103.686722,108.841255 
	C103.686722,106.958290 103.686722,105.034096 103.809700,102.187325 
	C103.836006,95.789978 103.739334,90.315208 103.647934,84.393616 
	C103.616943,80.385345 103.580681,76.823906 103.706268,72.812866 
	C103.806313,69.510078 103.744522,66.656891 103.682724,63.803703 
	C103.683357,62.193996 103.683990,60.584290 104.001366,58.925453 
	C104.614853,60.096237 104.911606,61.316154 104.959076,61.511299 
	C106.884018,60.627964 108.600838,59.335274 110.450050,59.104824 
	C113.556023,58.717754 116.765717,58.809368 119.890266,59.118759 
	C120.969994,59.225670 121.926094,60.581184 122.938660,61.366356 
	C122.022316,62.243107 121.188919,63.235561 120.168465,63.967094 
	C118.915710,64.865158 117.506668,65.545219 115.908127,66.699966 
	C115.651070,70.153900 115.651070,73.227379 115.651070,76.512344 
	C118.513702,76.657341 121.111320,76.788918 123.812363,76.925728 
	C123.812363,80.027206 123.812363,82.925697 123.812363,86.237411 
	C121.033180,86.237411 118.457214,86.237411 115.517029,86.237411 
	C115.517029,90.819077 115.517029,94.987000 115.517029,99.417358 
	C119.154922,99.622261 122.577446,99.815041 125.999962,100.007812 
z"/>
<path fill="#010101" opacity="1.000000" stroke="none" 
	d="
M48.313774,63.961472 
	C48.907070,61.692841 49.500362,59.424210 50.161041,56.897919 
	C52.850708,56.897919 55.473354,56.897919 58.560825,57.332134 
	C59.836449,58.478214 60.647243,59.190083 61.458042,59.901947 
	C61.640312,58.957733 61.822582,58.013519 62.004852,57.069305 
	C63.800674,57.734356 67.748405,54.551365 66.169075,59.985161 
	C64.928085,61.441399 64.476837,62.752136 64.001999,64.400986 
	C63.678177,65.585770 63.377926,66.432442 63.108627,66.962280 
	C62.818100,65.859840 62.496616,65.074234 62.175133,64.288628 
	C61.769840,64.422371 61.364548,64.556114 60.959251,64.689857 
	C61.240749,66.000244 61.522247,67.310623 61.341599,68.752319 
	C60.240761,69.554977 59.602074,70.226326 58.642982,70.905167 
	C57.897869,70.949875 57.473167,70.987091 57.028900,71.014267 
	C57.009338,71.004219 56.970371,70.983833 56.994591,70.660027 
	C54.302788,69.266823 53.381496,70.810951 52.986210,73.302681 
	C52.993500,73.494919 53.000710,73.879601 52.675583,73.889954 
	C51.919655,73.948174 51.488857,73.996033 51.058060,74.043900 
	C51.058060,74.043900 51.027672,74.002319 51.049515,73.649597 
	C50.605396,72.167702 50.139431,71.038528 50.026207,69.628510 
	C50.267937,68.568558 50.156933,67.789452 50.041512,66.665894 
	C49.462654,65.534775 48.888214,64.748123 48.313774,63.961472 
M57.381191,64.725929 
	C57.401096,64.330261 57.421001,63.934597 57.440907,63.538929 
	C57.284515,63.576687 57.003757,63.592033 56.992252,63.655891 
	C56.925880,64.024300 56.923145,64.404175 57.381191,64.725929 
M51.766506,65.817940 
	C52.023186,65.713409 52.279861,65.608879 52.536541,65.504349 
	C52.450905,65.378479 52.337883,65.134293 52.284252,65.146706 
	C52.015602,65.208878 51.762505,65.338264 51.766506,65.817940 
M53.495144,63.315063 
	C53.495144,63.315063 53.350922,63.588627 53.350922,63.588627 
	C53.350922,63.588627 53.663826,63.538315 53.495144,63.315063 
M50.583878,62.516212 
	C50.583878,62.516212 50.477657,62.578335 50.583878,62.516212 
z"/>
<path fill="#050505" opacity="1.000000" stroke="none" 
	d="
M16.499287,63.124489 
	C17.238161,64.642365 17.617373,66.315697 17.713295,68.810928 
	C17.292284,71.434319 17.057594,73.234489 17.033127,75.037506 
	C16.907240,84.314651 16.835329,93.592529 16.744576,102.870155 
	C16.195292,101.787262 15.179853,100.709183 15.168629,99.620743 
	C15.052791,88.388878 15.075937,77.155190 15.145349,65.922539 
	C15.150805,65.039658 15.793233,64.160713 16.499287,63.124489 
z"/>
<path fill="#010101" opacity="1.000000" stroke="none" 
	d="
M43.016670,103.490265 
	C44.574467,102.807297 46.195690,102.271477 47.738377,102.442810 
	C49.641346,102.654160 51.478966,103.453911 53.741653,104.000610 
	C54.184460,104.454666 54.230446,104.907509 53.780445,105.689751 
	C52.523117,106.996490 51.761772,107.973824 51.000427,108.951157 
	C48.308151,108.951157 45.615871,108.951157 42.778000,108.951157 
	C42.876183,107.114273 42.960720,105.532669 43.016670,103.490265 
z"/>
<path fill="#1A1A1A" opacity="1.000000" stroke="none" 
	d="
M116.165184,66.319519 
	C117.506668,65.545219 118.915710,64.865158 120.168465,63.967094 
	C121.188919,63.235561 122.022316,62.243107 122.938660,61.366356 
	C121.926094,60.581184 120.969994,59.225670 119.890266,59.118759 
	C116.765717,58.809368 113.556023,58.717754 110.450050,59.104824 
	C108.600838,59.335274 106.884018,60.627964 104.959076,61.511299 
	C104.911606,61.316154 104.614853,60.096237 104.082352,58.448357 
	C103.846588,58.020390 103.823395,57.957531 104.269455,57.988068 
	C105.473389,57.692837 106.231262,57.367069 106.989136,57.041306 
	C112.242462,57.008091 117.495789,56.974880 123.393600,57.395203 
	C124.300034,57.891346 124.561981,57.933964 124.823921,57.976578 
	C124.945419,59.025753 125.066917,60.074924 124.907997,61.718246 
	C123.738380,63.609165 122.849190,64.905930 121.565521,66.345886 
	C119.502426,66.432564 117.833801,66.376038 116.165184,66.319519 
z"/>
<path fill="#141414" opacity="1.000000" stroke="none" 
	d="
M16.902081,103.110519 
	C16.835329,93.592529 16.907240,84.314651 17.033127,75.037506 
	C17.057594,73.234489 17.292284,71.434319 17.709782,69.329117 
	C17.988529,75.932449 17.749290,82.850471 18.066435,89.742882 
	C18.295115,94.712723 19.264488,99.648499 19.854122,105.022736 
	C18.889694,104.747627 17.974642,104.049248 16.902081,103.110519 
z"/>
<path fill="#A4A4A4" opacity="1.000000" stroke="none" 
	d="
M81.208328,73.006516 
	C80.709877,73.570847 80.211426,74.135178 79.527351,74.909660 
	C78.286263,69.944046 77.152702,65.408615 75.933960,60.490532 
	C76.344437,60.115864 76.840088,60.123856 77.709663,60.369480 
	C78.280952,61.110291 78.478317,61.613468 78.675690,62.116642 
	C79.169312,64.490570 79.662941,66.864502 80.426895,69.900612 
	C80.867592,71.377365 81.037956,72.191940 81.208328,73.006516 
z"/>
<path fill="#7E7E7E" opacity="1.000000" stroke="none" 
	d="
M103.642670,84.840446 
	C103.739334,90.315208 103.836006,95.789978 103.807907,101.731262 
	C103.283897,102.150467 102.884651,102.103142 102.192169,101.973526 
	C101.956741,96.835114 102.014565,91.778999 102.311310,86.086006 
	C102.914383,85.246239 103.278526,85.043343 103.642670,84.840446 
z"/>
<path fill="#050505" opacity="1.000000" stroke="none" 
	d="
M79.952042,107.574417 
	C84.096970,107.540367 88.443481,107.868340 92.895233,108.582756 
	C88.718193,108.624939 84.435905,108.280685 79.952042,107.574417 
z"/>
<path fill="#252525" opacity="1.000000" stroke="none" 
	d="
M143.899750,72.006027 
	C146.619888,71.508316 149.360779,71.018303 151.713272,70.597725 
	C152.763702,69.207771 153.679596,67.995842 154.862030,66.917572 
	C155.207352,68.425117 155.286133,69.799019 154.759766,71.558052 
	C150.733276,71.976318 147.311951,72.009445 143.890610,72.042580 
	C143.890610,72.042580 143.920517,72.013718 143.899750,72.006027 
z"/>
<path fill="#7E7E7E" opacity="1.000000" stroke="none" 
	d="
M103.405548,63.779778 
	C103.744522,66.656891 103.806313,69.510078 103.494789,72.973801 
	C102.811615,73.437157 102.501762,73.289970 102.191910,73.142784 
	C102.131752,70.389175 102.071602,67.635559 102.025253,64.424332 
	C102.402161,63.896431 102.765266,63.826145 103.405548,63.779778 
z"/>
<path fill="#050505" opacity="1.000000" stroke="none" 
	d="
M21.448307,58.492668 
	C22.213512,61.170670 22.069309,63.515675 17.691626,62.673054 
	C18.529701,61.241463 19.829832,59.940144 21.448307,58.492668 
z"/>
<path fill="#050505" opacity="1.000000" stroke="none" 
	d="
M37.316681,106.953842 
	C38.029766,105.297157 37.148663,101.616005 41.182098,103.524887 
	C40.093243,104.915184 38.865108,105.977005 37.316681,106.953842 
z"/>
<path fill="#050505" opacity="1.000000" stroke="none" 
	d="
M42.022598,66.733665 
	C40.390938,66.965973 38.700520,66.965973 37.010098,66.965973 
	C37.044506,66.291542 37.078915,65.617119 37.113323,64.942688 
	C38.550022,65.210480 39.986721,65.478271 41.750969,65.891037 
	C42.078510,66.036026 41.963840,66.501358 42.022598,66.733665 
z"/>
<path fill="#050505" opacity="1.000000" stroke="none" 
	d="
M100.343109,62.523560 
	C98.716293,61.756744 96.911537,60.682476 95.081802,59.228870 
	C96.759605,59.971722 98.462395,61.093914 100.343109,62.523560 
z"/>
<path fill="#090909" opacity="1.000000" stroke="none" 
	d="
M143.909241,72.452553 
	C147.311951,72.009445 150.733276,71.976318 154.639984,71.956299 
	C151.392853,72.267120 147.660370,72.564819 143.909241,72.452553 
z"/>
<path fill="#0D0D0D" opacity="1.000000" stroke="none" 
	d="
M61.634842,56.972702 
	C61.822582,58.013519 61.640312,58.957733 61.458042,59.901947 
	C60.647243,59.190083 59.836449,58.478214 59.010658,57.414597 
	C59.752056,57.000591 60.508446,56.938343 61.634842,56.972702 
z"/>
<path fill="#000000" opacity="1.000000" stroke="none" 
	d="
M51.407387,109.051346 
	C51.761772,107.973824 52.523117,106.996490 53.650803,106.009506 
	C53.282875,107.050423 52.548611,108.100983 51.407387,109.051346 
z"/>
<path fill="#D8D8D8" opacity="1.000000" stroke="none" 
	d="
M127.099030,63.125347 
	C127.129532,64.215416 126.850021,65.250320 126.232712,66.663033 
	C125.534966,66.976784 125.292282,66.778481 125.163177,66.009094 
	C125.284264,64.709984 125.409027,63.847698 125.533791,62.985413 
	C125.952202,63.013676 126.370605,63.041931 127.099030,63.125347 
z"/>
<path fill="#010101" opacity="1.000000" stroke="none" 
	d="
M71.361145,109.052353 
	C71.715897,108.306061 72.431892,107.661316 73.480438,107.007950 
	C74.109734,107.522308 74.406487,108.045296 74.917587,108.946037 
	C73.708076,109.024719 72.715240,109.089310 71.361145,109.052353 
z"/>
<path fill="#010101" opacity="1.000000" stroke="none" 
	d="
M55.751194,99.330750 
	C54.835289,98.622749 54.007515,97.958595 53.179741,97.294441 
	C53.471531,96.959465 53.763321,96.624481 54.055115,96.289505 
	C54.683495,97.047646 55.311874,97.805794 55.967529,98.908890 
	C55.994801,99.253830 55.839325,99.374588 55.751194,99.330750 
z"/>
<path fill="#050505" opacity="1.000000" stroke="none" 
	d="
M78.988419,61.979179 
	C78.478317,61.613468 78.280952,61.110291 78.079269,60.327820 
	C78.447998,59.706356 78.821037,59.364189 79.436249,58.946938 
	C79.552658,59.861813 79.426910,60.851765 78.988419,61.979179 
z"/>
<path fill="#0D0D0D" opacity="1.000000" stroke="none" 
	d="
M64.025581,64.062874 
	C64.476837,62.752136 64.928085,61.441399 65.753708,60.091187 
	C66.082321,60.473709 66.036575,60.895706 66.058151,61.630737 
	C66.050034,62.428928 65.974594,62.914085 65.639244,63.490341 
	C64.928085,63.741924 64.476830,63.902401 64.025581,64.062874 
z"/>
<path fill="#1A1A1A" opacity="1.000000" stroke="none" 
	d="
M48.318195,64.338867 
	C48.888214,64.748123 49.462654,65.534775 49.750847,66.693054 
	C49.274643,67.105629 49.084686,67.146576 48.894726,67.187531 
	C48.694515,67.153717 48.494305,67.119904 48.011566,66.972305 
	C47.926899,66.144447 48.124756,65.430351 48.318195,64.338867 
z"/>
<path fill="#050505" opacity="1.000000" stroke="none" 
	d="
M79.589035,103.996948 
	C79.974152,104.810165 79.948761,105.626015 79.856392,106.845329 
	C78.848534,106.439209 77.907639,105.629639 76.848328,104.530159 
	C77.546112,104.160034 78.362320,104.079811 79.589035,103.996948 
z"/>
<path fill="#050505" opacity="1.000000" stroke="none" 
	d="
M77.001312,101.996948 
	C76.977318,102.507088 76.953316,103.017227 76.850754,103.903580 
	C76.081207,104.147789 75.390236,104.015800 74.352310,103.949333 
	C74.005142,103.558693 74.004936,103.102524 74.397102,102.314346 
	C75.526756,101.987213 76.264038,101.992081 77.001312,101.996948 
z"/>
<path fill="#010101" opacity="1.000000" stroke="none" 
	d="
M125.473053,62.710945 
	C125.409027,63.847698 125.284264,64.709984 124.758881,65.999252 
	C123.558846,66.351723 122.759422,66.277214 121.959991,66.202698 
	C122.849190,64.905930 123.738380,63.609165 124.908630,62.116314 
	C125.263901,62.092316 125.338104,62.264397 125.473053,62.710945 
z"/>
<path fill="#141414" opacity="1.000000" stroke="none" 
	d="
M20.807760,106.476608 
	C21.713923,106.516510 22.778063,106.871979 23.924379,107.585007 
	C22.992950,107.559113 21.979343,107.175636 20.807760,106.476608 
z"/>
<path fill="#010101" opacity="1.000000" stroke="none" 
	d="
M62.986969,104.333435 
	C63.557549,104.304237 64.050652,104.608658 64.543747,104.913078 
	C64.268364,105.241096 63.992989,105.569115 63.440804,105.948883 
	C63.079163,105.556091 62.994324,105.111565 62.986969,104.333435 
z"/>
<path fill="#010101" opacity="1.000000" stroke="none" 
	d="
M59.324554,99.363953 
	C59.231846,98.666969 59.460720,98.116714 59.689598,97.566452 
	C60.101574,97.909767 60.513546,98.253090 60.961456,98.910423 
	C60.546978,99.319847 60.096558,99.415260 59.324554,99.363953 
z"/>
<path fill="#010101" opacity="1.000000" stroke="none" 
	d="
M106.672119,56.968822 
	C106.231262,57.367069 105.473389,57.692837 104.284889,57.972668 
	C104.687889,57.583267 105.521500,57.239803 106.672119,56.968822 
z"/>
<path fill="#050505" opacity="1.000000" stroke="none" 
	d="
M39.789085,61.263226 
	C39.578445,61.189156 39.326099,61.076439 39.342110,61.088142 
	C39.610462,61.212563 39.747379,61.224579 39.789085,61.263226 
z"/>
<path fill="#010101" opacity="1.000000" stroke="none" 
	d="
M124.842384,57.631111 
	C124.561981,57.933964 124.300034,57.891346 123.669113,57.694122 
	C123.820374,57.454887 124.340614,57.370266 124.842384,57.631111 
z"/>
<path fill="#050505" opacity="1.000000" stroke="none" 
	d="
M38.392059,59.310722 
	C38.316814,59.534439 38.239998,59.782883 38.163177,60.031326 
	C38.148636,59.935429 38.134094,59.839527 38.256897,59.504158 
	C38.394241,59.264690 38.390480,59.335453 38.392059,59.310722 
z"/>
<path fill="#0C0C0C" opacity="1.000000" stroke="none" 
	d="
M92.025040,41.008991 
	C87.578133,41.434589 83.135483,41.956596 78.678474,42.153351 
	C78.170166,42.175785 77.133263,40.362148 77.160278,39.423428 
	C77.185562,38.544884 78.230873,37.634663 78.953331,36.855228 
	C79.612923,36.143620 81.075699,35.608425 81.095932,34.961441 
	C81.269455,29.411526 81.195518,23.853870 81.195518,18.298525 
	C80.592346,18.251652 79.989174,18.204779 79.385994,18.157906 
	C79.238457,19.346081 78.938568,20.538891 78.974556,21.721483 
	C79.053619,24.320215 78.644150,26.886551 75.421898,26.131014 
	C74.101585,25.821430 73.093689,23.414333 72.329971,21.780811 
	C71.866066,20.788551 72.140572,19.451071 72.083366,18.268673 
	C71.537880,18.251310 70.992386,18.233950 70.446899,18.216587 
	C70.320938,20.601053 70.136505,22.984238 70.084183,25.370317 
	C70.022209,28.196949 69.883240,31.045942 70.174446,33.843948 
	C70.284622,34.902607 71.565819,35.807289 72.196495,36.852589 
	C72.877464,37.981216 73.965858,39.249226 73.850655,40.348969 
	C73.761375,41.201298 72.148125,42.441025 71.116280,42.543728 
	C68.166985,42.837280 65.157867,42.780487 62.196075,42.552380 
	C61.246586,42.479256 59.959656,41.630642 59.576237,40.793659 
	C59.181358,39.931664 59.477551,37.780544 59.852505,37.684711 
	C65.239929,36.307762 62.718712,32.017624 63.217674,28.894962 
	C63.372875,27.923653 63.219818,26.903088 63.219604,25.027576 
	C63.038624,22.139162 62.845924,20.128239 62.653225,18.117317 
	C62.054977,18.165512 61.456734,18.213705 60.858486,18.261900 
	C60.858486,20.490021 60.858486,22.718142 60.858486,24.946262 
	C58.101181,26.248009 57.243591,28.376686 57.118187,31.440521 
	C56.932613,35.974369 55.222813,40.004459 50.338867,42.539757 
	C43.207546,44.514244 38.697731,41.880367 35.799019,34.586662 
	C34.458218,41.056320 31.044189,42.995991 25.883278,42.665882 
	C23.604710,42.520145 21.287689,42.975597 18.988125,43.158112 
	C17.209072,42.940170 15.430017,42.722229 13.376117,42.470615 
	C12.775917,40.140430 11.258317,37.596298 15.250060,36.272736 
	C15.710688,36.120003 15.842317,34.506672 15.859088,33.565762 
	C15.927250,29.741657 16.058973,25.904419 15.803037,22.096500 
	C15.712726,20.752825 14.517151,19.506338 13.944293,18.165045 
	C13.474249,17.064480 12.643387,15.705408 12.954680,14.797812 
	C13.277019,13.858015 14.754868,12.760265 15.775043,12.710505 
	C20.082718,12.500397 24.427454,12.409510 28.721745,12.745934 
	C33.013344,13.082147 34.486034,16.098360 34.247005,20.841936 
	C33.176857,23.220200 32.243992,24.842037 31.211529,26.637028 
	C32.310181,27.331738 33.587265,28.139277 35.228081,29.176811 
	C35.456245,26.113346 35.648308,23.534565 35.840374,20.955786 
	C40.231125,10.576493 46.682858,8.917958 54.805340,15.703395 
	C55.982563,14.638729 57.095318,13.632363 58.705441,13.143424 
	C60.015572,14.096916 60.826157,14.908406 61.641430,14.913143 
	C75.473763,14.993501 89.307045,15.014412 103.138649,14.887565 
	C104.095833,14.878786 105.041420,13.604882 105.992401,12.919310 
	C109.656769,16.104086 109.355507,17.232527 104.095169,19.215296 
	C104.095169,23.110226 104.095169,27.097631 104.009827,31.542908 
	C102.088104,32.364262 100.251717,32.727745 97.919739,32.717865 
	C97.424156,27.817774 97.424156,23.291052 97.424156,18.764328 
	C96.857346,18.781452 96.290527,18.798574 95.723717,18.815699 
	C95.601173,19.414455 95.546791,20.037500 95.343643,20.607527 
	C94.665848,22.509338 94.053307,25.950922 93.203773,26.015543 
	C89.282562,26.313816 90.377853,23.078691 90.285316,20.700075 
	C90.251022,19.818323 89.679596,18.957468 89.353134,18.087082 
	C89.019356,18.163042 88.685577,18.239002 88.351799,18.314962 
	C88.351799,24.217329 88.351799,30.119696 88.351799,35.933830 
	C89.591904,36.911964 90.898460,37.942509 92.133926,39.307594 
	C92.050240,40.097748 92.037636,40.553371 92.025040,41.008991 
M48.020397,18.264717 
	C46.407326,18.913212 43.484989,19.419527 43.396587,20.233587 
	C42.876438,25.023514 42.840527,29.894133 43.085979,34.714931 
	C43.133965,35.657455 45.252853,37.324684 46.207954,37.189003 
	C47.517704,37.002945 49.332329,35.625172 49.701900,34.390366 
	C51.277596,29.125666 52.075626,23.749376 48.020397,18.264717 
M26.286539,30.171955 
	C25.015232,30.301872 23.743927,30.431787 22.472622,30.561705 
	C22.741909,32.593365 22.891569,34.658493 23.438229,36.612556 
	C23.503485,36.845821 26.430161,36.907261 26.810463,36.292988 
	C27.604883,35.009834 27.645811,33.229683 27.843365,31.634752 
	C27.880255,31.336920 27.202572,30.950581 26.286539,30.171955 
M22.409311,22.422609 
	C23.465096,22.912579 24.520882,23.402546 25.576666,23.892515 
	C26.102795,22.669149 27.017868,21.442165 27.006529,20.223803 
	C26.999920,19.513582 25.510340,18.817163 24.687983,18.114534 
	C23.932209,19.292133 23.176435,20.469734 22.409311,22.422609 
z"/>
<path fill="#EEEEEE" opacity="1.000000" stroke="none" 
	d="
M18.765350,43.374397 
	C21.287689,42.975597 23.604710,42.520145 25.883278,42.665882 
	C31.044189,42.995991 34.458218,41.056320 35.799019,34.586662 
	C38.697731,41.880367 43.207546,44.514244 50.091293,42.793777 
	C50.665283,43.141090 50.995491,43.490932 51.666924,44.476612 
	C51.548744,45.223854 51.089344,45.335262 49.945793,45.472469 
	C48.514885,45.581081 47.768124,45.663891 47.021366,45.746700 
	C45.609516,45.641411 44.197666,45.536121 42.063766,45.456879 
	C40.902096,45.573929 40.462471,45.664936 40.022850,45.755939 
	C34.973488,45.651470 29.924129,45.547005 24.000565,45.462074 
	C20.750664,45.371284 18.374968,45.260960 15.999273,45.150631 
	C16.847040,44.630650 17.694807,44.110664 18.765350,43.374397 
z"/>
<path fill="#1A1A1A" opacity="1.000000" stroke="none" 
	d="
M105.550095,12.770477 
	C105.041420,13.604882 104.095833,14.878786 103.138649,14.887565 
	C89.307045,15.014412 75.473763,14.993501 61.641430,14.913143 
	C60.826157,14.908406 60.015572,14.096916 59.108330,13.261786 
	C64.023643,12.779877 69.033440,12.697031 74.602295,12.891044 
	C75.454292,13.045710 75.747215,12.923516 76.040138,12.801323 
	C80.709122,12.766484 85.378105,12.731647 90.654709,13.022051 
	C91.853142,13.181585 92.443970,13.015880 93.034790,12.850174 
	C97.059120,12.773997 101.083458,12.697821 105.550095,12.770477 
z"/>
<path fill="#0D0D0D" opacity="1.000000" stroke="none" 
	d="
M145.992706,17.643831 
	C146.297150,16.337708 146.601593,15.031588 147.318085,13.438994 
	C148.382050,13.122361 149.034012,13.092199 149.685959,13.062038 
	C151.494080,13.334431 153.302216,13.606824 155.110336,13.879217 
	C154.083313,16.961105 157.676605,21.113419 152.150528,23.197987 
	C149.584610,21.257689 147.788651,19.450760 145.992706,17.643831 
z"/>
<path fill="#D8D8D8" opacity="1.000000" stroke="none" 
	d="
M145.693039,17.865234 
	C147.788651,19.450760 149.584610,21.257689 151.710571,23.257694 
	C152.109833,23.772299 152.117447,24.095276 152.048889,24.662563 
	C150.164520,24.339682 148.246506,23.895874 146.436066,23.180014 
	C143.624100,22.068134 142.787888,20.387859 145.693039,17.865234 
z"/>
<path fill="#BFBFBF" opacity="1.000000" stroke="none" 
	d="
M35.604996,20.905727 
	C35.648308,23.534565 35.456245,26.113346 35.228081,29.176811 
	C33.587265,28.139277 32.310181,27.331738 31.211529,26.637028 
	C32.243992,24.842037 33.176857,23.220200 34.268463,21.252716 
	C34.734146,20.757811 35.048283,20.740679 35.604996,20.905727 
z"/>
<path fill="#080808" opacity="1.000000" stroke="none" 
	d="
M15.697041,45.276428 
	C18.374968,45.260960 20.750664,45.371284 23.553967,45.609138 
	C20.679167,46.063133 17.376757,46.389606 13.607618,46.432243 
	C13.892196,45.899685 14.643501,45.650955 15.697041,45.276428 
z"/>
<path fill="#E8E8E8" opacity="1.000000" stroke="none" 
	d="
M149.383499,12.699375 
	C149.034012,13.092199 148.382050,13.122361 147.363495,13.166526 
	C144.593826,13.696638 142.190750,14.212747 139.404480,14.721432 
	C141.776550,11.391125 144.888977,9.579642 149.383499,12.699375 
z"/>
<path fill="#080808" opacity="1.000000" stroke="none" 
	d="
M148.659271,45.613811 
	C148.382080,45.870739 147.786301,46.009670 147.109253,45.945736 
	C147.465561,45.660519 147.903107,45.578167 148.659271,45.613811 
z"/>
<path fill="#E8E8E8" opacity="1.000000" stroke="none" 
	d="
M137.938995,14.901926 
	C137.970062,15.715755 137.887207,16.296114 137.804367,16.876472 
	C137.516174,16.885185 137.227982,16.893898 136.939789,16.902611 
	C136.891556,16.130438 136.843338,15.358267 136.918182,14.294157 
	C137.302521,14.224297 137.563797,14.446376 137.938995,14.901926 
z"/>
<path fill="#0C0C0C" opacity="1.000000" stroke="none" 
	d="
M92.692734,12.758066 
	C92.443970,13.015880 91.853142,13.181585 91.111877,13.105515 
	C91.424515,12.797812 91.887596,12.731886 92.692734,12.758066 
z"/>
<path fill="#0C0C0C" opacity="1.000000" stroke="none" 
	d="
M75.767769,12.705791 
	C75.747215,12.923516 75.454292,13.045710 75.057655,12.989162 
	C75.134430,12.743701 75.314911,12.676980 75.767769,12.705791 
z"/>
<path fill="#E9E9E9" opacity="1.000000" stroke="none" 
	d="
M92.205017,38.973053 
	C90.898460,37.942509 89.591904,36.911964 88.351799,35.933830 
	C88.351799,30.119696 88.351799,24.217329 88.351799,18.314962 
	C88.685577,18.239002 89.019356,18.163042 89.353134,18.087082 
	C89.679596,18.957468 90.251022,19.818323 90.285316,20.700075 
	C90.377853,23.078691 89.282562,26.313816 93.203773,26.015543 
	C94.053307,25.950922 94.665848,22.509338 95.343643,20.607527 
	C95.546791,20.037500 95.601173,19.414455 95.723717,18.815699 
	C96.290527,18.798574 96.857346,18.781452 97.424156,18.764328 
	C97.424156,23.291052 97.424156,27.817774 97.568268,32.714298 
	C97.521835,34.101833 97.331291,35.119568 96.728470,36.456520 
	C95.548996,37.185402 94.781792,37.595055 93.772278,38.091988 
	C93.088318,38.443859 92.646667,38.708458 92.205017,38.973053 
z"/>
<path fill="#E1E1E1" opacity="1.000000" stroke="none" 
	d="
M131.956482,25.018930 
	C133.796478,25.018930 135.636459,25.018930 136.343674,25.018930 
	C139.825027,26.977365 142.780502,28.500084 145.580002,30.269587 
	C147.149094,31.261372 148.694733,32.499390 149.725433,33.989868 
	C149.990005,34.372452 148.455582,36.755356 147.396759,37.081989 
	C146.358749,37.402214 143.893631,36.468678 143.750427,35.748302 
	C143.032715,32.138321 141.251358,31.501171 137.690186,30.573256 
	C134.998474,29.871889 133.254074,27.923006 130.487122,32.215477 
	C130.274094,29.057428 130.167755,27.481312 130.417206,25.458311 
	C131.167496,25.013929 131.561981,25.016430 131.956482,25.018930 
z"/>
<path fill="#151515" opacity="1.000000" stroke="none" 
	d="
M111.848160,42.365196 
	C108.234070,42.393059 104.619987,42.420918 100.390472,42.079712 
	C99.189522,41.471485 98.603996,41.232327 98.018478,40.993172 
	C99.420189,40.665249 100.821892,40.337326 102.704773,40.157776 
	C103.457787,40.204350 103.729630,40.102551 104.001465,40.000751 
	C110.023628,40.002304 116.045784,40.003853 122.795975,40.101852 
	C124.681709,39.800426 125.839401,39.402561 126.997101,39.004696 
	C128.837509,39.492218 130.677933,39.979740 132.513809,40.896545 
	C132.325516,41.658787 132.141754,41.991745 131.957993,42.324699 
	C128.308746,42.364731 124.659492,42.404762 120.370163,42.069443 
	C118.786636,41.874542 117.843178,42.054996 116.899727,42.235451 
	C116.211754,42.300980 115.523781,42.366508 114.319748,42.112198 
	C113.151840,41.983299 112.500000,42.174248 111.848160,42.365196 
z"/>
<path fill="#BFBFBF" opacity="1.000000" stroke="none" 
	d="
M131.927948,24.575500 
	C131.561981,25.016430 131.167496,25.013929 130.477280,25.023674 
	C129.863434,23.430746 129.545288,21.825571 129.227158,20.220396 
	C128.813431,20.202486 128.399719,20.184574 127.986015,20.166664 
	C127.304611,21.772512 126.623207,23.378363 125.941803,24.984211 
	C125.554352,24.969854 125.166901,24.955498 124.779457,24.941139 
	C124.598122,22.903702 124.416786,20.866262 124.195663,18.381752 
	C126.948395,18.381752 129.138016,18.381752 131.899429,18.381752 
	C131.899429,20.310116 131.899429,22.221094 131.927948,24.575500 
z"/>
<path fill="#0C0C0C" opacity="1.000000" stroke="none" 
	d="
M127.235565,38.746887 
	C125.839401,39.402561 124.681709,39.800426 123.262146,40.100208 
	C122.981758,35.819668 126.254341,34.714436 129.901703,33.260902 
	C131.050262,33.125526 131.530991,33.064484 132.011734,33.003445 
	C133.876114,37.625401 129.711121,37.259857 127.235565,38.746887 
z"/>
<path fill="#0C0C0C" opacity="1.000000" stroke="none" 
	d="
M94.014595,38.004711 
	C94.781792,37.595055 95.548996,37.185402 96.653130,36.760159 
	C96.993652,37.879696 96.997231,39.014824 97.000412,40.574974 
	C97.000000,41.000000 96.998474,41.000954 96.670288,40.857353 
	C95.660507,40.528656 94.978905,40.343563 94.171112,39.911270 
	C94.034813,39.110954 94.024704,38.557831 94.014595,38.004711 
z"/>
<path fill="#0C0C0C" opacity="1.000000" stroke="none" 
	d="
M132.259537,42.455132 
	C132.141754,41.991745 132.325516,41.658787 132.744019,41.160599 
	C133.152496,40.995586 133.326233,40.995808 134.130676,40.994614 
	C135.502289,40.989735 136.243210,40.986271 136.984116,40.982807 
	C136.984116,40.982807 136.992874,41.457260 136.996323,41.694504 
	C135.520203,42.149685 134.040649,42.367622 132.259537,42.455132 
z"/>
<path fill="#0C0C0C" opacity="1.000000" stroke="none" 
	d="
M97.764244,40.995483 
	C98.603996,41.232327 99.189522,41.471485 99.946976,41.987328 
	C99.202148,42.388939 98.285393,42.513863 97.154099,42.163979 
	C96.959198,41.459759 96.978836,41.230358 96.998474,41.000954 
	C96.998474,41.000954 97.000000,41.000000 97.000763,40.999313 
	C97.171021,40.998352 97.340515,40.998077 97.764244,40.995483 
z"/>
<path fill="#151515" opacity="1.000000" stroke="none" 
	d="
M136.794861,40.747681 
	C136.243210,40.986271 135.502289,40.989735 134.391266,40.993416 
	C134.882629,40.833275 135.744125,40.672913 136.794861,40.747681 
z"/>
<path fill="#BFBFBF" opacity="1.000000" stroke="none" 
	d="
M131.960632,32.535381 
	C131.530991,33.064484 131.050262,33.125526 130.213776,33.109989 
	C130.541855,32.711380 131.225677,32.389347 131.960632,32.535381 
z"/>
<path fill="#0C0C0C" opacity="1.000000" stroke="none" 
	d="
M103.748970,40.001114 
	C103.729630,40.102551 103.457787,40.204350 103.088730,40.155853 
	C103.159828,40.004200 103.328148,40.002842 103.748970,40.001114 
z"/>
<path fill="#080808" opacity="1.000000" stroke="none" 
	d="
M114.383919,45.617500 
	C112.313721,45.931377 109.828773,46.119614 107.185257,46.018806 
	C109.340843,45.650463 111.655014,45.571163 114.383919,45.617500 
z"/>
<path fill="#E9E9E9" opacity="1.000000" stroke="none" 
	d="
M61.217014,24.959204 
	C60.858486,22.718142 60.858486,20.490021 60.858486,18.261900 
	C61.456734,18.213705 62.054977,18.165512 62.653225,18.117317 
	C62.845924,20.128239 63.038624,22.139162 63.120815,24.574959 
	C62.532055,24.990604 62.053799,24.981375 61.217014,24.959204 
z"/>
<path fill="#080808" opacity="1.000000" stroke="none" 
	d="
M125.579132,45.609604 
	C124.417442,45.911095 122.856003,46.086563 121.160385,45.990387 
	C122.410591,45.640358 123.794983,45.561970 125.579132,45.609604 
z"/>
<path fill="#080808" opacity="1.000000" stroke="none" 
	d="
M69.596527,45.603558 
	C68.742767,45.902260 67.506599,46.073566 66.148651,45.991291 
	C67.089287,45.650528 68.151695,45.563343 69.596527,45.603558 
z"/>
<path fill="#E1E1E1" opacity="1.000000" stroke="none" 
	d="
M93.772278,38.091988 
	C94.024704,38.557831 94.034813,39.110954 94.166565,40.143196 
	C94.288208,40.622314 94.498466,41.035877 94.498466,41.035881 
	C93.880173,41.022938 93.261887,41.009995 92.334312,41.003021 
	C92.037636,40.553371 92.050240,40.097748 92.133926,39.307590 
	C92.646667,38.708458 93.088318,38.443859 93.772278,38.091988 
z"/>
<path fill="#080808" opacity="1.000000" stroke="none" 
	d="
M90.619370,45.586258 
	C90.062599,45.875916 89.145988,46.046883 88.128044,45.977158 
	C88.770981,45.646839 89.515266,45.557201 90.619370,45.586258 
z"/>
<path fill="#080808" opacity="1.000000" stroke="none" 
	d="
M78.619049,45.620804 
	C78.061806,45.900028 77.145004,46.057888 76.127480,45.976742 
	C76.771004,45.658298 77.515251,45.578869 78.619049,45.620804 
z"/>
<path fill="#0C0C0C" opacity="1.000000" stroke="none" 
	d="
M117.123383,42.415657 
	C117.843178,42.054996 118.786636,41.874542 119.925156,41.976624 
	C119.195824,42.371391 118.271431,42.483627 117.123383,42.415657 
z"/>
<path fill="#0C0C0C" opacity="1.000000" stroke="none" 
	d="
M112.060684,42.495804 
	C112.500000,42.174248 113.151840,41.983299 113.976486,42.058380 
	C113.523933,42.425072 112.898567,42.525742 112.060684,42.495804 
z"/>
<path fill="#0A0A0A" opacity="1.000000" stroke="none" 
	d="
M94.698631,41.345978 
	C94.498466,41.035877 94.288208,40.622314 94.292755,40.390388 
	C94.978905,40.343563 95.660507,40.528656 96.670288,40.857353 
	C96.978836,41.230358 96.959198,41.459759 96.901901,42.032463 
	C96.209091,42.135872 95.553947,41.895973 94.698631,41.345978 
z"/>
<path fill="#080808" opacity="1.000000" stroke="none" 
	d="
M96.739830,45.640224 
	C96.688812,45.849720 96.401176,45.954731 96.069939,45.897980 
	C96.185295,45.669395 96.344261,45.602570 96.739830,45.640224 
z"/>
<path fill="#080808" opacity="1.000000" stroke="none" 
	d="
M47.124882,45.984722 
	C47.768124,45.663891 48.514885,45.581081 49.621437,45.622002 
	C49.063618,45.904736 48.146008,46.063740 47.124882,45.984722 
z"/>
<path fill="#080808" opacity="1.000000" stroke="none" 
	d="
M40.107571,45.956684 
	C40.462471,45.664936 40.902096,45.573929 41.661030,45.604958 
	C41.384327,45.870472 40.788307,46.013950 40.107571,45.956684 
z"/>
<path fill="#EEEEEE" opacity="1.000000" stroke="none" 
	d="
M31.001560,99.926941 
	C28.925024,99.623108 26.937307,99.753014 27.022631,96.417992 
	C27.271767,86.679810 27.111160,76.931137 27.111160,66.810196 
	C28.901991,66.810196 30.428856,66.810196 32.361977,66.810196 
	C32.361977,69.987595 32.361977,73.070839 32.361977,76.940514 
	C34.320499,76.628227 35.784576,76.394775 37.997688,76.192413 
	C39.339874,77.480858 39.933029,78.738205 40.566429,80.009987 
	C40.606678,80.024414 40.354210,80.144821 40.194786,80.630554 
	C41.358814,81.644241 42.682274,82.172180 44.370235,82.753685 
	C45.206852,83.179817 46.124676,83.630058 46.075581,83.911812 
	C45.835342,85.290512 45.337448,86.624329 44.710087,88.008026 
	C44.489540,88.042046 44.047558,87.980034 44.047558,87.980034 
	C42.952694,87.630302 41.857826,87.280571 40.014858,86.924438 
	C38.507275,86.978104 37.747799,87.038155 36.988319,87.098213 
	C35.695854,87.098213 34.403389,87.098213 32.553967,87.098213 
	C32.553967,90.806488 32.553967,94.394539 32.383530,98.522385 
	C31.809248,99.350433 31.405403,99.638687 31.001560,99.926941 
z"/>
<path fill="#010101" opacity="1.000000" stroke="none" 
	d="
M44.930634,87.974007 
	C45.337448,86.624329 45.835342,85.290512 46.075581,83.911812 
	C46.124676,83.630058 45.206852,83.179817 44.312412,82.464111 
	C43.264572,81.748436 42.639065,81.375893 42.004990,80.603455 
	C41.993931,79.137642 41.991447,78.071716 42.242935,76.790520 
	C42.672039,75.715759 42.847160,74.856285 43.022285,73.996811 
	C43.555969,74.135750 44.089653,74.274696 44.920273,74.928787 
	C45.807648,75.690773 46.398087,75.937614 46.988525,76.184448 
	C46.988525,76.184456 46.993633,76.582382 46.998383,77.122269 
	C47.340271,78.443993 47.677406,79.225845 48.383736,80.004745 
	C49.491238,79.999977 50.229549,79.998154 50.982117,80.329071 
	C51.438404,81.278023 51.880440,81.894241 52.322475,82.510468 
	C52.211658,81.680290 52.100845,80.850105 51.994164,79.685341 
	C52.006374,78.683586 52.014450,78.016426 52.285683,77.131058 
	C52.774776,76.281197 53.000713,75.649529 53.500111,74.958572 
	C54.188553,74.336372 54.603535,73.773460 55.255497,73.025833 
	C55.985107,72.222023 56.477737,71.602928 56.970367,70.983833 
	C56.970371,70.983833 57.009338,71.004219 57.173752,71.273026 
	C57.894779,71.701378 58.451397,71.860916 59.284111,72.166626 
	C60.703087,73.196510 61.845959,74.080238 62.988831,74.963966 
	C62.988831,74.963966 63.007439,75.008606 62.991608,75.397964 
	C63.650841,77.191994 64.325905,78.596680 65.000961,80.001366 
	C65.000961,80.001366 65.025780,80.018112 65.141129,80.240128 
	C65.453140,80.722374 65.703049,80.912720 66.006218,81.033157 
	C65.442574,82.484802 64.878922,83.936440 63.802048,85.693512 
	C62.576786,85.998085 61.864746,85.997238 61.066605,85.577080 
	C60.980495,83.203873 60.980495,81.249977 60.980495,78.829285 
	C58.931526,79.145996 56.675709,79.494675 55.290848,79.708740 
	C55.567619,82.109879 55.569016,83.830528 56.005836,85.432434 
	C56.445175,87.043556 57.317760,88.536530 58.000500,90.081276 
	C57.967663,90.240013 57.979095,90.507996 57.895641,90.541809 
	C53.762806,92.216476 49.621838,93.871056 45.393173,94.923599 
	C45.179932,92.204239 45.055286,90.089127 44.930634,87.974007 
M56.667976,76.471130 
	C56.024773,76.345123 55.381573,76.219116 54.738373,76.093109 
	C54.671711,76.351585 54.605049,76.610062 54.538387,76.868538 
	C55.287933,76.923218 56.037483,76.977898 56.667976,76.471130 
M45.325047,78.347534 
	C45.000443,78.590500 44.675838,78.833458 44.351238,79.076424 
	C44.550842,79.284538 44.750446,79.492653 44.950050,79.700768 
	C45.203346,79.385307 45.456642,79.069839 45.325047,78.347534 
M61.334480,76.521843 
	C61.141960,76.470322 60.949436,76.418800 60.756916,76.367279 
	C60.880630,76.492233 61.004341,76.617188 61.334480,76.521843 
z"/>
<path fill="#E4E4E4" opacity="1.000000" stroke="none" 
	d="
M86.004288,87.833336 
	C87.445564,88.044777 88.886848,88.256218 90.797005,88.536453 
	C90.797005,91.934021 90.797005,95.205215 90.539749,98.951683 
	C90.282494,99.426964 90.005051,99.834366 90.005051,99.834366 
	C88.472977,99.426987 86.940903,99.019608 85.237518,98.306274 
	C85.155426,97.243774 85.244644,96.487213 85.341049,94.966537 
	C84.565521,93.787621 83.782784,93.372818 83.000053,92.958008 
	C79.413887,93.091156 75.827721,93.224297 72.132706,93.877571 
	C72.023857,94.397705 71.998962,94.327454 71.998962,94.327454 
	C72.251114,94.031876 72.503273,93.736298 72.410362,92.875824 
	C71.963448,91.158249 71.861610,90.005577 71.759773,88.852905 
	C71.402000,86.002625 71.044220,83.152336 70.461960,79.818176 
	C70.327187,79.147301 70.287704,78.991951 70.097244,78.597168 
	C69.383865,78.267738 68.692284,78.209389 68.000702,78.151039 
	C69.623947,77.145782 71.247185,76.140533 72.870422,75.135277 
	C73.303276,75.327026 73.736137,75.518776 74.168991,75.710526 
	C71.155045,80.108566 74.740463,81.128288 77.347290,83.348572 
	C80.555809,85.144615 83.280052,86.488976 86.004288,87.833336 
z"/>
<path fill="#E6E6E6" opacity="1.000000" stroke="none" 
	d="
M58.351624,89.987442 
	C57.317760,88.536530 56.445175,87.043556 56.005836,85.432434 
	C55.569016,83.830528 55.567619,82.109879 55.290848,79.708740 
	C56.675709,79.494675 58.931526,79.145996 60.980495,78.829285 
	C60.980495,81.249977 60.980495,83.203873 61.012253,85.978653 
	C60.988735,87.850838 60.933464,88.902145 60.878193,89.953453 
	C60.153046,89.933510 59.427895,89.913559 58.351624,89.987442 
z"/>
<path fill="#0C0C0C" opacity="1.000000" stroke="none" 
	d="
M23.999542,86.952835 
	C23.999542,80.382698 23.999542,74.303917 23.999542,68.225136 
	C24.238466,68.226501 24.477388,68.227867 24.716312,68.229233 
	C24.716312,77.677681 24.716312,87.126129 24.716312,96.574585 
	C24.477388,96.592056 24.238466,96.609528 23.999542,96.627007 
	C23.999542,93.566071 23.999542,90.505135 23.999542,86.952835 
z"/>
<path fill="#050505" opacity="1.000000" stroke="none" 
	d="
M44.710091,88.008026 
	C45.055286,90.089127 45.179932,92.204239 45.148365,94.669037 
	C44.490913,92.849236 43.989677,90.679764 43.768002,88.245163 
	C44.047558,87.980034 44.489540,88.042046 44.710091,88.008026 
z"/>
<path fill="#010101" opacity="1.000000" stroke="none" 
	d="
M77.065094,101.656006 
	C76.264038,101.992081 75.526756,101.987213 74.422424,101.973122 
	C75.085228,100.006805 76.115089,98.049713 77.144951,96.092613 
	C77.737755,96.371147 78.330566,96.649673 78.923370,96.928207 
	C78.325203,98.390495 77.727036,99.852783 77.065094,101.656006 
z"/>
<path fill="#050505" opacity="1.000000" stroke="none" 
	d="
M42.867767,73.852783 
	C42.847160,74.856285 42.672039,75.715759 41.890984,77.227127 
	C41.032093,78.584534 40.779140,79.290047 40.526184,79.995560 
	C39.933029,78.738205 39.339874,77.480858 38.371643,76.021980 
	C38.628010,74.759789 39.259457,73.699120 39.947266,72.317993 
	C40.003632,71.997551 40.023781,71.984772 40.023781,71.984772 
	C40.920269,72.559441 41.816761,73.134102 42.867767,73.852783 
z"/>
<path fill="#010101" opacity="1.000000" stroke="none" 
	d="
M71.343002,88.887192 
	C71.861610,90.005577 71.963448,91.158249 72.163551,92.651108 
	C70.930954,92.323769 69.600105,91.656227 68.269249,90.988693 
	C69.154915,90.299622 70.040581,89.610542 71.343002,88.887192 
z"/>
<path fill="#050505" opacity="1.000000" stroke="none" 
	d="
M61.192371,90.010956 
	C60.933464,88.902145 60.988735,87.850838 61.098358,86.397964 
	C61.864746,85.997238 62.576786,85.998085 63.644867,85.998398 
	C64.000916,87.646988 64.000916,89.296120 64.000916,91.141937 
	C62.979660,90.702431 62.243103,90.385452 61.192371,90.010956 
z"/>
<path fill="#BFBFBF" opacity="1.000000" stroke="none" 
	d="
M49.673470,69.909355 
	C50.139431,71.038528 50.605396,72.167702 51.057518,73.670776 
	C50.127937,72.319229 49.212200,70.593788 48.678360,69.182495 
	C49.232994,69.681419 49.437401,69.818993 49.673470,69.909355 
z"/>
<path fill="#050505" opacity="1.000000" stroke="none" 
	d="
M50.967861,79.996338 
	C50.229549,79.998154 49.491238,79.999977 48.382465,79.626633 
	C48.024246,78.495392 48.036491,77.739319 48.048733,76.983246 
	C48.048733,76.983246 48.482292,76.993362 48.996025,77.000656 
	C49.707008,77.003319 49.904259,76.998695 50.101505,76.994064 
	C50.101505,76.994064 50.446045,76.991417 50.932198,77.061684 
	C51.619743,77.204384 51.821136,77.276817 52.022526,77.349258 
	C52.014450,78.016426 52.006374,78.683586 51.738705,79.678070 
	C51.308697,80.002380 51.138279,79.999359 50.967861,79.996338 
z"/>
<path fill="#050505" opacity="1.000000" stroke="none" 
	d="
M36.818321,87.323257 
	C37.747799,87.038155 38.507275,86.978104 39.639240,87.009338 
	C40.374866,87.576920 40.738007,88.053192 41.101143,88.529472 
	C40.967552,88.835739 40.833958,89.142014 40.700363,89.448288 
	C39.349686,88.814957 37.999004,88.181633 36.818321,87.323257 
z"/>
<path fill="#050505" opacity="1.000000" stroke="none" 
	d="
M31.053284,100.256973 
	C31.405403,99.638687 31.809248,99.350433 32.446949,98.977142 
	C33.035526,99.652504 33.390247,100.412910 33.744968,101.173317 
	C32.864983,100.977882 31.984995,100.782448 31.053284,100.256973 
z"/>
<path fill="#1A1A1A" opacity="1.000000" stroke="none" 
	d="
M52.285683,77.131058 
	C51.821136,77.276817 51.619743,77.204384 51.104362,77.055527 
	C50.910992,76.172951 51.031616,75.366798 51.105148,74.302277 
	C51.488857,73.996033 51.919655,73.948174 52.725792,74.176369 
	C53.142971,74.640907 53.184811,74.829384 53.226646,75.017860 
	C53.000713,75.649529 52.774776,76.281197 52.285683,77.131058 
z"/>
<path fill="#050505" opacity="1.000000" stroke="none" 
	d="
M70.119034,78.868248 
	C70.287704,78.991951 70.327187,79.147301 70.231560,79.453506 
	C69.198463,80.035072 68.171272,80.497452 66.575150,80.996490 
	C65.703049,80.912720 65.453140,80.722374 65.153374,80.248718 
	C65.893303,79.854172 66.736343,79.673035 68.321442,79.236481 
	C69.415352,78.943459 69.767189,78.905853 70.119034,78.868248 
z"/>
<path fill="#0D0D0D" opacity="1.000000" stroke="none" 
	d="
M50.026207,69.628510 
	C49.437401,69.818993 49.232994,69.681419 49.034233,69.303391 
	C48.991943,68.681244 48.975677,68.252357 48.927067,67.505493 
	C49.084686,67.146576 49.274643,67.105629 49.755264,67.037521 
	C50.156933,67.789452 50.267937,68.568558 50.026207,69.628510 
z"/>
<path fill="#050505" opacity="1.000000" stroke="none" 
	d="
M72.021729,94.677277 
	C71.998962,94.327454 72.023857,94.397705 72.037407,94.353867 
	C72.481201,94.872177 72.911438,95.434326 73.341675,95.996483 
	C73.095268,96.085121 72.662399,96.291748 72.632004,96.243698 
	C72.392769,95.865631 72.230476,95.438858 72.021729,94.677277 
z"/>
<path fill="#010101" opacity="1.000000" stroke="none" 
	d="
M83.051376,93.285004 
	C83.782784,93.372818 84.565521,93.787621 85.219849,94.601143 
	C84.428535,94.537247 83.765625,94.074623 83.051376,93.285004 
z"/>
<path fill="#050505" opacity="1.000000" stroke="none" 
	d="
M39.994438,72.003563 
	C39.979549,71.412468 39.973858,70.815369 39.968163,70.218262 
	C40.360054,70.307022 40.751942,70.395782 41.143833,70.484543 
	C40.863243,70.838692 40.582649,71.192833 40.162918,71.765877 
	C40.023781,71.984772 40.003632,71.997551 39.994438,72.003563 
z"/>
<path fill="#050505" opacity="1.000000" stroke="none" 
	d="
M36.043922,68.412598 
	C36.279819,68.800308 36.277786,69.185837 36.248024,69.569214 
	C36.247204,69.579773 35.948463,69.567200 35.788647,69.565414 
	C35.793152,69.180321 35.797653,68.795219 36.043922,68.412598 
z"/>
<path fill="#151515" opacity="1.000000" stroke="none" 
	d="
M47.019432,75.888741 
	C46.398087,75.937614 45.807648,75.690773 45.117798,75.126984 
	C45.695705,75.071030 46.373020,75.332031 47.019432,75.888741 
z"/>
<path fill="#151515" opacity="1.000000" stroke="none" 
	d="
M47.785332,76.980759 
	C48.036491,77.739319 48.024246,78.495392 48.013275,79.629578 
	C47.677406,79.225845 47.340271,78.443993 46.999119,77.321243 
	C47.170715,76.979652 47.346321,76.978966 47.785332,76.980759 
z"/>
<path fill="#151515" opacity="1.000000" stroke="none" 
	d="
M49.981758,76.824295 
	C49.904259,76.998695 49.707008,77.003319 49.212852,77.003036 
	C49.231300,76.883598 49.546658,76.769066 49.981758,76.824295 
z"/>
<path fill="#E6E6E6" opacity="1.000000" stroke="none" 
	d="
M121.565521,66.345894 
	C122.759422,66.277214 123.558846,66.351723 124.762566,66.436081 
	C125.292282,66.778481 125.534966,66.976784 126.061371,67.031357 
	C126.335426,68.001610 126.681450,69.024086 126.514587,69.954590 
	C124.289871,82.360664 132.289490,88.338905 143.335297,88.479538 
	C143.335297,91.874237 143.335297,95.284096 143.335297,99.298111 
	C142.026489,99.410767 140.498352,99.542305 138.626999,99.703384 
	C138.417114,97.220596 138.241669,95.145271 138.048798,92.863693 
	C134.307846,92.863693 130.726151,92.863693 126.846863,92.863693 
	C126.661873,95.053635 126.484856,97.149185 126.153900,99.626274 
	C122.577446,99.815041 119.154922,99.622261 115.517029,99.417358 
	C115.517029,94.987000 115.517029,90.819077 115.517029,86.237411 
	C118.457214,86.237411 121.033180,86.237411 123.812363,86.237411 
	C123.812363,82.925697 123.812363,80.027206 123.812363,76.925728 
	C121.111320,76.788918 118.513702,76.657341 115.651070,76.512344 
	C115.651070,73.227379 115.651070,70.153900 115.908127,66.699966 
	C117.833801,66.376038 119.502426,66.432564 121.565521,66.345894 
z"/>
<path fill="#E6E6E6" opacity="1.000000" stroke="none" 
	d="
M101.838043,73.325546 
	C102.501762,73.289970 102.811615,73.437157 103.332947,73.423401 
	C103.580681,76.823906 103.616943,80.385345 103.647934,84.393616 
	C103.278526,85.043343 102.914383,85.246239 102.413803,85.615692 
	C102.064697,85.485504 101.852020,85.188766 101.242279,84.493042 
	C98.464104,82.130859 96.083000,80.167664 93.701889,78.204468 
	C93.009323,78.120216 92.316757,78.035965 90.801208,77.927368 
	C88.688400,77.840004 87.398582,77.777008 86.108757,77.714005 
	C85.781013,74.201981 85.453278,70.689957 85.111496,67.027473 
	C88.746666,66.034813 91.252754,65.733177 90.819527,71.020294 
	C91.520660,72.267876 92.224625,72.730095 92.928596,73.192322 
	C95.780457,73.297653 98.632309,73.402977 101.838043,73.325546 
z"/>
<path fill="#050505" opacity="1.000000" stroke="none" 
	d="
M93.543121,78.566917 
	C96.083000,80.167664 98.464104,82.130859 100.984680,84.390701 
	C100.056091,85.331200 98.988037,85.975037 98.015053,86.561569 
	C96.314880,83.759392 94.849617,81.344376 93.543121,78.566917 
z"/>
<path fill="#151515" opacity="1.000000" stroke="none" 
	d="
M63.210701,74.742271 
	C61.845959,74.080238 60.703087,73.196510 59.278206,71.885605 
	C58.985264,71.271515 58.974323,71.084595 58.963387,70.897675 
	C59.602074,70.226326 60.240761,69.554977 61.421913,69.024368 
	C62.704685,70.122246 63.444984,71.079376 64.185287,72.036514 
	C64.930931,72.368134 65.676567,72.699760 67.044518,73.308159 
	C65.358353,73.874153 64.395462,74.197365 63.210701,74.742271 
z"/>
<path fill="#050505" opacity="1.000000" stroke="none" 
	d="
M86.057938,87.537018 
	C83.280052,86.488976 80.555809,85.144615 77.660446,83.485107 
	C80.581467,83.885857 83.673615,84.601738 86.984802,85.368340 
	C86.731781,85.910866 86.421684,86.575783 86.057938,87.537018 
z"/>
<path fill="#A4A4A4" opacity="1.000000" stroke="none" 
	d="
M64.155899,71.642181 
	C63.444984,71.079376 62.704685,70.122246 61.884064,68.893059 
	C61.522247,67.310623 61.240749,66.000244 60.959251,64.689857 
	C61.364548,64.556114 61.769840,64.422371 62.175133,64.288628 
	C62.496616,65.074234 62.818100,65.859840 63.184799,67.256233 
	C63.419064,68.215446 63.608105,68.563881 63.797150,68.912315 
	C63.906940,69.690826 64.016731,70.469337 64.155899,71.642181 
z"/>
<path fill="#050505" opacity="1.000000" stroke="none" 
	d="
M81.518127,72.999680 
	C81.037956,72.191940 80.867592,71.377365 80.618416,70.262566 
	C81.139542,69.306908 81.739479,68.651482 82.339417,67.996048 
	C82.744057,68.157341 83.148697,68.318642 83.553337,68.479935 
	C82.978195,69.984238 82.403061,71.488533 81.518127,72.999680 
z"/>
<path fill="#BFBFBF" opacity="1.000000" stroke="none" 
	d="
M64.181625,68.666542 
	C63.608105,68.563881 63.419064,68.215446 63.153847,67.573059 
	C63.377926,66.432442 63.678177,65.585770 64.001999,64.400986 
	C64.476830,63.902401 64.928085,63.741924 65.716949,63.704464 
	C65.558411,65.358574 65.062263,66.889671 64.181625,68.666542 
z"/>
<path fill="#141414" opacity="1.000000" stroke="none" 
	d="
M74.991745,74.007980 
	C74.686195,72.633011 74.380638,71.258041 74.075081,69.883080 
	C74.635925,69.804070 75.196762,69.725052 75.757599,69.646042 
	C75.512093,70.863686 75.266594,72.081322 75.010422,73.649605 
	C74.999748,74.000244 74.991745,74.007980 74.991745,74.007980 
z"/>
<path fill="#050505" opacity="1.000000" stroke="none" 
	d="
M86.145302,78.103973 
	C87.398582,77.777008 88.688400,77.840004 90.280334,77.997818 
	C89.356422,80.867249 87.870247,80.789284 86.145302,78.103973 
z"/>
<path fill="#141414" opacity="1.000000" stroke="none" 
	d="
M64.983154,79.652405 
	C64.325905,78.596680 63.650841,77.191994 63.001511,75.420029 
	C63.673279,76.469635 64.319313,77.886536 64.983154,79.652405 
z"/>
<path fill="#050505" opacity="1.000000" stroke="none" 
	d="
M92.907021,72.860321 
	C92.224625,72.730095 91.520660,72.267876 90.918976,71.402634 
	C91.642654,71.509186 92.264046,72.018745 92.907021,72.860321 
z"/>
<path fill="#141414" opacity="1.000000" stroke="none" 
	d="
M75.003693,73.997475 
	C75.539452,74.715927 76.071266,75.437157 76.603088,76.158379 
	C76.375473,76.303391 76.147865,76.448402 75.920258,76.593414 
	C75.602402,75.938400 75.284546,75.283379 74.979218,74.318176 
	C74.991745,74.007980 74.999748,74.000244 75.003693,73.997475 
z"/>
<path fill="#000000" opacity="1.000000" stroke="none" 
	d="
M70.097244,78.597168 
	C69.767189,78.905853 69.415352,78.943459 68.532791,78.985855 
	C68.002075,78.990646 68.000938,78.570847 68.000824,78.360947 
	C68.692284,78.209389 69.383865,78.267738 70.097244,78.597168 
z"/>
<path fill="#050505" opacity="1.000000" stroke="none" 
	d="
M90.032516,100.103302 
	C90.005051,99.834366 90.282494,99.426964 90.521255,99.366257 
	C90.713135,99.845497 90.666237,100.385452 90.619347,100.925400 
	C90.432892,100.741013 90.246437,100.556625 90.032516,100.103302 
z"/>
<path fill="#141414" opacity="1.000000" stroke="none" 
	d="
M74.453148,61.454979 
	C74.510345,61.421017 74.395950,61.488941 74.453148,61.454979 
z"/>
<path fill="#141414" opacity="1.000000" stroke="none" 
	d="
M71.521408,62.892204 
	C71.759659,62.904652 72.029076,62.950893 72.298500,62.997139 
	C72.130539,63.056061 71.962585,63.114986 71.627747,63.042545 
	C71.460869,62.911182 71.552589,62.926006 71.521408,62.892204 
z"/>
<path fill="#050505" opacity="1.000000" stroke="none" 
	d="
M89.525269,86.539459 
	C89.479683,86.564629 89.570847,86.514282 89.525269,86.539459 
z"/>
<path fill="#1A1A1A" opacity="1.000000" stroke="none" 
	d="
M56.994587,70.660027 
	C56.477737,71.602928 55.985107,72.222023 54.916901,72.987839 
	C53.887188,73.126511 53.433052,73.118477 52.978920,73.110443 
	C53.381496,70.810951 54.302788,69.266823 56.994587,70.660027 
z"/>
<path fill="#050505" opacity="1.000000" stroke="none" 
	d="
M52.986210,73.302681 
	C53.433052,73.118477 53.887188,73.126511 54.679916,73.172546 
	C54.603535,73.773460 54.188553,74.336372 53.500107,74.958572 
	C53.184811,74.829384 53.142971,74.640907 53.050922,74.166016 
	C53.000710,73.879601 52.993500,73.494919 52.986210,73.302681 
z"/>
<path fill="#151515" opacity="1.000000" stroke="none" 
	d="
M57.140022,64.753052 
	C56.923145,64.404175 56.925880,64.024300 56.992252,63.655891 
	C57.003757,63.592033 57.284515,63.576687 57.440903,63.538929 
	C57.421001,63.934597 57.401096,64.330261 57.140022,64.753052 
z"/>
<path fill="#1A1A1A" opacity="1.000000" stroke="none" 
	d="
M58.642979,70.905167 
	C58.974323,71.084595 58.985264,71.271515 59.002106,71.739441 
	C58.451397,71.860916 57.894779,71.701378 57.193314,71.283073 
	C57.473167,70.987091 57.897869,70.949875 58.642979,70.905167 
z"/>
<path fill="#1A1A1A" opacity="1.000000" stroke="none" 
	d="
M51.635223,65.630981 
	C51.762505,65.338264 52.015602,65.208878 52.284252,65.146706 
	C52.337883,65.134293 52.450905,65.378479 52.536541,65.504349 
	C52.279861,65.608879 52.023186,65.713409 51.635223,65.630981 
z"/>
<path fill="#1A1A1A" opacity="1.000000" stroke="none" 
	d="
M53.579483,63.426689 
	C53.663826,63.538315 53.350922,63.588627 53.350922,63.588627 
	C53.350922,63.588627 53.495144,63.315063 53.579483,63.426689 
z"/>
<path fill="#1A1A1A" opacity="1.000000" stroke="none" 
	d="
M50.530769,62.547272 
	C50.477657,62.578335 50.583878,62.516212 50.530769,62.547272 
z"/>
<path fill="#EEEEEE" opacity="1.000000" stroke="none" 
	d="
M48.347084,18.503693 
	C52.075626,23.749376 51.277596,29.125666 49.701900,34.390366 
	C49.332329,35.625172 47.517704,37.002945 46.207954,37.189003 
	C45.252853,37.324684 43.133965,35.657455 43.085979,34.714931 
	C42.840527,29.894133 42.876438,25.023514 43.396587,20.233587 
	C43.484989,19.419527 46.407326,18.913212 48.347084,18.503693 
z"/>
<path fill="#D8D8D8" opacity="1.000000" stroke="none" 
	d="
M26.570599,30.388521 
	C27.202572,30.950581 27.880255,31.336920 27.843365,31.634752 
	C27.645811,33.229683 27.604883,35.009834 26.810463,36.292988 
	C26.430161,36.907261 23.503485,36.845821 23.438229,36.612556 
	C22.891569,34.658493 22.741909,32.593365 22.472622,30.561705 
	C23.743927,30.431787 25.015232,30.301872 26.570599,30.388521 
z"/>
<path fill="#D8D8D8" opacity="1.000000" stroke="none" 
	d="
M22.414986,22.034971 
	C23.176435,20.469734 23.932209,19.292133 24.687983,18.114534 
	C25.510340,18.817163 26.999920,19.513582 27.006529,20.223803 
	C27.017868,21.442165 26.102795,22.669149 25.576666,23.892515 
	C24.520882,23.402546 23.465096,22.912579 22.414986,22.034971 
z"/>
<path fill="#050505" opacity="1.000000" stroke="none" 
	d="
M42.013557,81.003357 
	C42.639065,81.375893 43.264572,81.748436 43.947906,82.410553 
	C42.682274,82.172180 41.358814,81.644241 40.598236,80.870842 
	C41.445259,80.751381 41.729408,80.877373 42.013557,81.003357 
z"/>
<path fill="#151515" opacity="1.000000" stroke="none" 
	d="
M42.004986,80.603455 
	C41.729408,80.877373 41.445259,80.751381 40.757660,80.385101 
	C40.354210,80.144821 40.606678,80.024414 40.566429,80.009987 
	C40.779140,79.290047 41.032093,78.584534 41.637005,77.442413 
	C41.991447,78.071716 41.993931,79.137642 42.004986,80.603455 
z"/>
<path fill="#151515" opacity="1.000000" stroke="none" 
	d="
M50.982117,80.329071 
	C51.138279,79.999359 51.308697,80.002380 51.734573,80.012665 
	C52.100845,80.850105 52.211658,81.680290 52.322475,82.510468 
	C51.880440,81.894241 51.438404,81.278023 50.982117,80.329071 
z"/>
<path fill="#141414" opacity="1.000000" stroke="none" 
	d="
M56.727505,76.751854 
	C56.037483,76.977898 55.287933,76.923218 54.538387,76.868538 
	C54.605049,76.610062 54.671711,76.351585 54.738373,76.093109 
	C55.381573,76.219116 56.024773,76.345123 56.727505,76.751854 
z"/>
<path fill="#151515" opacity="1.000000" stroke="none" 
	d="
M45.517494,78.550949 
	C45.456642,79.069839 45.203346,79.385307 44.950050,79.700768 
	C44.750446,79.492653 44.550842,79.284538 44.351234,79.076416 
	C44.675838,78.833458 45.000443,78.590500 45.517494,78.550949 
z"/>
<path fill="#0D0D0D" opacity="1.000000" stroke="none" 
	d="
M61.231270,76.631989 
	C61.004341,76.617188 60.880630,76.492233 60.756916,76.367279 
	C60.949436,76.418800 61.141960,76.470322 61.231270,76.631989 
z"/>
</svg>